<?xml version="1.0" encoding="UTF-8" standalone="no"?>
<!-- Created with Inkscape (http://www.inkscape.org/) -->

<svg
   width="279.40002mm"
   height="266.85052mm"
   viewBox="0 0 279.40003 266.85053"
   version="1.1"
   id="svg2265"
   inkscape:version="1.2.1 (9c6d41e410, 2022-07-14, custom)"
   sodipodi:docname="coffee.svg"
   xmlns:inkscape="http://www.inkscape.org/namespaces/inkscape"
   xmlns:sodipodi="http://sodipodi.sourceforge.net/DTD/sodipodi-0.dtd"
   xmlns="http://www.w3.org/2000/svg"
   xmlns:svg="http://www.w3.org/2000/svg">
  <sodipodi:namedview
     id="namedview2267"
     pagecolor="#505050"
     bordercolor="#eeeeee"
     borderopacity="1"
     inkscape:showpageshadow="0"
     inkscape:pageopacity="0"
     inkscape:pagecheckerboard="0"
     inkscape:deskcolor="#505050"
     inkscape:document-units="mm"
     showgrid="false"
     inkscape:zoom="0.57422413"
     inkscape:cx="627.80365"
     inkscape:cy="713.13618"
     inkscape:window-width="2512"
     inkscape:window-height="1332"
     inkscape:window-x="1115"
     inkscape:window-y="81"
     inkscape:window-maximized="0"
     inkscape:current-layer="layer1" />
  <defs
     id="defs2262" />
  <g
     inkscape:label="Layer 1"
     inkscape:groupmode="layer"
     id="layer1"
     transform="translate(118.25009,152.32054)">
    <path
       id="path1254"
       style="display:inline;fill:#FFCD00;fill-opacity:1;stroke:none;stroke-width:0.162916"
       d="m -28.226054,-152.32054 c -3.371723,0.0127 -3.786477,6.42321 -0.517715,7.5547 2.214771,0.76663 5.112091,-1.57026 7.126506,-2.30262 3.722401,-1.35328 7.231381,-1.37689 11.100564,-0.65466 2.7929804,0.52134 5.8592732,1.20999 8.4967,2.26872 3.120377,1.25255 6.0032073,3.06574 9.3191542,3.78495 4.0746138,0.88379 8.4409908,-0.56364 12.6081038,-0.0447 1.85804,0.23133 4.263106,0.36421 6.02976,0.87072 1.274912,0.36546 2.466139,1.39196 3.700633,1.91876 1.603666,0.68426 3.488081,1.01155 5.207283,1.25933 4.81494,0.69383 9.447843,0.10837 14.253035,-0.2208 1.702931,-0.11649 3.489594,0.12475 5.207727,0.12475 2.825052,0 5.681931,-0.25491 8.4967,-0.13172 5.793105,0.25368 11.606862,0.88437 17.40462,0.9533 2.471456,0.0294 4.925373,0.13781 7.400371,0.13781 0.769774,0 2.310963,-0.29318 2.97208,0.14085 l 1.550585,-0.004 h 1.918333 v -0.0156 c 3.165674,0.0456 6.859374,0.27529 10.025124,0.25472 1.87826,-0.0122 3.56628,-0.10861 4.8969,-0.41166 0.66533,-0.15152 1.24507,-0.35196 1.72622,-0.659 0.48114,-0.30703 0.87584,-0.75766 1.00981,-1.32586 a 0.67883147,0.67883147 0 0 0 -0.50512,-0.8168 0.67883147,0.67883147 0 0 0 -0.81638,0.50512 c -0.0393,0.16672 -0.13921,0.31467 -0.41862,0.49297 -0.27941,0.1783 -0.72604,0.34973 -1.29757,0.47989 -1.14302,0.26035 -2.7701,0.36586 -4.60437,0.37777 -3.27642,0.0214 -7.216065,-0.23906 -10.569361,-0.26125 l -16.440032,-0.27692 -14.115644,-0.94721 v -0.13694 c 3.041657,-0.0252 6.164791,-0.94654 9.181783,-1.33149 5.147392,-0.65699 10.367025,-0.75909 15.211972,-2.91686 l 3.289397,-1.48884 c 0.334958,-0.12816 0.756147,-0.15088 1.194135,-0.1465 0.715584,0.0485 1.393525,0.0838 2.03309,0.11389 0.06006,0.003 0.141709,0.0138 0.198666,0.0138 v -0.005 c 1.991804,0.0926 3.668914,0.16138 5.322059,0.55599 2.285125,0.54547 4.601585,1.69993 7.829875,4.50568 a 0.67883147,0.67883147 0 0 0 0.95808,-0.067 0.67883147,0.67883147 0 0 0 -0.0674,-0.95764 c -3.33384,-2.89752 -5.89533,-4.20257 -8.405403,-4.80172 -1.837073,-0.43853 -3.612116,-0.50683 -5.637214,-0.59773 v -0.003 c -1.414302,-0.0607 -2.695737,-0.3613 -4.111427,0.0218 -1.08308,0.29296 -1.893871,1.01992 -2.877706,1.51188 -1.380587,0.6903 -3.018069,1.22633 -4.522665,1.56058 -3.522604,0.78225 -7.014176,0.82779 -10.552401,1.33237 -4.303844,0.61383 -8.555373,1.85179 -12.881978,2.26523 -5.57512,0.53285 -11.749393,-0.20287 -17.130746,-1.5884 -2.146109,-0.55256 -3.999898,-2.02067 -6.167129,-2.43651 -1.358642,-0.26069 -2.870098,-0.31028 -4.248349,-0.17692 -0.672355,0.0651 -1.523565,0.45613 -2.186995,0.31647 -0.936298,-0.19706 -1.36365,-1.66877 -2.20046,-2.1583 -1.501709,-0.87861 -3.023137,-0.0972 -2.971635,1.68187 0.01803,0.62232 0.472756,1.18911 0.6438,1.78141 -2.484879,-0.84118 -6.023439,-1.18437 -8.633624,-0.93592 -2.834355,0.2697 -5.942246,0.93124 -8.7709921,0.33645 -2.9370036,-0.6175 -5.3472111,-2.34054 -8.08546174,-3.44979 -4.63717546,-1.87847 -9.67501716,-2.93966 -14.66382816,-3.19594 -2.999367,-0.1541 -5.938662,1.04344 -8.634068,2.20569 -1.237499,0.53358 -2.814391,1.72819 -4.24746,1.19759 -2.438296,-0.90271 0.450677,-3.12576 1.058487,-4.10662 0.430869,-0.69555 0.642219,-1.623 -0.376005,-1.86445 -0.250856,-0.0595 -0.489026,-0.0873 -0.713797,-0.0865 z m 54.71168,8.39193 1.233248,1.09632 c -0.724414,0.17597 -1.363985,-0.31145 -1.233248,-1.09632 z m -43.717615,0.65032 c -9.265426,-0.37948 -15.256882,9.48867 -16.593468,17.57677 -0.580211,3.51092 -0.322567,8.75134 3.025964,10.90582 1.97057,1.26804 5.908304,0.98181 6.640953,-1.58669 0.340528,-1.19389 -0.275784,-2.9376 0.216914,-3.97229 0.245848,-0.51681 0.809635,-0.86704 1.210212,-1.25542 1.132691,-1.09841 3.631592,-3.17571 5.362056,-2.46651 2.031954,0.83268 2.500771,5.50498 1.799237,7.28301 -0.699886,1.77362 -2.564692,2.91016 -1.524922,5.0708 1.137566,-0.29614 2.118755,-1.2756 2.30086,-2.46694 0.257355,-1.68303 0.942218,-2.94387 1.567545,-4.52264 0.242977,-0.61328 0.280902,-1.31166 0.673801,-1.86053 0.781035,-1.09087 1.987975,-1.83075 2.9950938,-2.68167 1.1468023,-0.96891 2.2028188,-2.14242 3.4267633,-3.00293 1.4381429,-1.01111 1.8900006,0.26899 2.6521167,1.21804 0.526929,0.65615 1.3476692,1.41785 1.2032452,2.35303 -0.2613611,1.6917 -1.8517857,2.9588 -3.1702762,3.88755 -0.7775849,0.54762 -1.9386758,0.92871 -1.7218504,2.14005 0.4089455,2.28562 3.6771299,0.22106 4.4626599,-0.546 0,1.53163 0.3549514,3.29469 0.116492,4.79478 -0.127309,0.80115 -0.988913,1.15101 -0.9150422,2.05701 0.063166,0.77636 0.9889569,1.43372 1.7448859,1.13154 1.17282063,-0.46884 0.81219367,-2.50834 0.721609,-3.46069 -0.2798566,-2.9408 -0.3770077,-5.96336 -0.1486755,-8.90791 0.06468,-0.83241 0.61045934,-1.649 0.59728278,-2.46085 -0.0113478,-0.69701 -0.93567428,-0.81281 -1.32323148,-1.2689 -1.1784516,-1.3862 -2.4365817,-2.74208 -2.4378065,-4.63001 -0.7277068,0.43348 -0.4960586,1.32386 -1.1167554,1.8227 -2.6444155,2.12501 -5.6323649,4.3996 -8.6136369,5.98889 -0.546671,-1.40909 -1.365453,-3.126 -2.877734,-3.70105 -1.361402,-0.51789 -2.430149,0.19236 -3.563242,0.80812 -1.758129,0.95546 -3.731414,1.98437 -4.8678,3.71497 -0.657955,1.0022 -0.0038,1.90729 -0.402981,2.84947 -0.401534,0.94724 -1.324856,1.3336 -1.444509,2.4952 l 1.781855,-0.95895 c -0.898884,3.02605 -5.204323,1.36018 -6.287537,-0.68727 -1.88595,-3.56509 -1.16886,-8.23531 0.03216,-11.92086 1.826123,-5.60388 6.317873,-11.62498 12.696352,-12.31033 2.143549,-0.23038 4.119038,0.69968 6.167128,1.15152 3.3682948,0.74278 6.7051187,1.90939 8.2563046,5.40292 0.6086113,1.37073 -0.3487189,2.56647 -0.1708428,3.97406 1.5529878,-0.46376 1.2882434,-2.17799 1.2693475,-3.4259 -0.00799,-0.52831 0.2430885,-0.98404 0.045206,-1.50756 -0.2780985,-0.73565 -0.8994178,-1.44531 -1.3849715,-2.0557 -2.2786488,-2.86465 -5.3443628,-3.44297 -8.7005718,-4.15053 -1.249406,-0.26354 -2.403219,-0.76495 -3.70019,-0.81812 z m 49.521312,0.39993 c 4.980665,-0.13623 9.148334,4.04549 14.204783,3.74626 -0.634919,0.83405 -2.984455,0.47096 -3.974481,0.58772 -3.267227,0.38524 -6.807589,-0.29551 -10.004262,-0.94374 -1.473354,-0.29889 -3.287636,-0.7296 -4.248328,-1.97355 0.922988,-0.52735 1.948069,-1.17213 3.015081,-1.32931 0.339794,-0.05 0.675158,-0.0783 1.007207,-0.0874 z m -67.824456,29.78668 c -1.06058,0.0436 -1.624277,0.79688 -2.527367,1.44888 -0.410303,0.29614 -0.677052,1.17804 -0.925481,1.65621 -0.376118,0.72372 -0.171266,2.78601 -0.171266,2.78601 0,3.93231 -0.370041,7.834454 -0.896369,11.721309 l -0.08389,-0.01179 c -0.755283,5.389255 -1.512146,10.563665 -2.73776,15.65145 -0.608211,2.524786 -1.310834,4.943674 -2.194807,7.259113 -0.855105,2.236894 -1.847134,4.312427 -3.080315,6.183197 -1.206071,1.827749 -2.604353,3.400256 -4.211381,4.610468 -1.747824,1.320027 -3.710693,2.164938 -5.63419,2.586905 -2.642791,0.582971 -5.281865,0.417826 -7.431668,0.06652 -6.156824,-1.007764 -9.547376,-3.020756 -9.547376,-3.020756 0,0 3.267272,2.195341 9.46044,3.486301 2.170458,0.45297 4.870472,0.732469 7.670328,0.229533 2.04197,-0.369217 4.154827,-1.18762 6.072783,-2.538673 1.753989,-1.238835 3.29478,-2.858793 4.612203,-4.747369 1.34629,-1.928038 2.440344,-4.064064 3.370676,-6.350569 0.963985,-2.36634 1.735539,-4.834148 2.395207,-7.395167 0.543689,-2.110677 0.999485,-4.238024 1.403668,-6.383599 l 0.09824,-0.122589 c 0.214489,-1.415331 0.430758,-2.831796 0.648563,-4.24835 0.08807,-0.556331 0.178544,-1.113062 0.262563,-1.672307 0.449409,-2.763156 1.043419,-5.681708 1.056773,-8.451477 0.0051,-1.04633 -0.27062,-3.64343 0.402536,-4.4731 0.343111,-0.42292 0.9588,-0.0822 1.378874,0.0191 1.439211,0.34685 2.362244,1.56554 3.132462,2.80949 0.324838,0.52462 0.409502,1.141 0.781168,1.64449 1.384973,1.876558 3.418485,3.241922 5.268578,4.602634 2.540811,1.868724 5.221149,3.739071 8.222408,4.806506 1.868211,0.664386 3.501479,0.995433 5.48202,1.131089 0.849118,0.05811 2.117264,-0.178766 2.839496,0.38818 0.540773,0.424281 0.593433,1.459309 0.7237687,2.090934 -0.9767167,0.02003 -2.2761997,0.125796 -3.1520267,0.5864 -2.328481,1.224611 -2.706,4.126271 -3.735843,6.265815 -1.109366,2.304398 -2.501794,5.161144 -2.253053,7.811592 0.783194,8.342037 8.168057,12.904919 14.4799431,17.038179 0.5594019,0.366459 1.3125037,1.056284 1.6462215,1.639257 0.3716441,0.649318 0.094146,1.333336 0.9632959,1.605358 0.7264829,-0.958332 1.52044853,0.105252 2.19264784,0.685086 1.80927476,1.560666 4.03388316,3.022202 5.61896616,4.796511 l 2.6038637,2.598211 c 1.9752218,-0.07703 4.0218878,-0.808388 5.8928138,-1.409744 3.502036,-1.12568 6.811239,-2.401016 10.004262,-4.271808 1.914527,-1.121697 3.738024,-2.49267 5.75589,-3.42416 1.14431,-0.528308 2.49899,-0.460425 3.700188,-0.815933 2.431997,-0.719873 4.783225,-1.63752 7.263452,-2.210898 6.946115,-1.605626 14.193387,-0.660782 21.241727,-0.744645 2.580273,-0.03071 5.097559,-0.700488 7.67467,-0.759423 3.664952,-0.0836 7.307048,0.668615 10.963639,0.75811 3.901497,0.09564 7.724746,-0.48039 11.585689,-0.628131 0.154975,0.0029 0.311085,0.0024 0.467304,-0.0045 l 1.850962,-0.07954 c 5.146346,-0.221077 10.271136,-0.942441 10.271136,-0.942441 0,0 -5.16784,-0.279301 -10.314181,-0.05824 l -1.850961,0.07954 c -0.0694,0.0029 -0.138571,0.008 -0.207785,0.01313 -4.071748,0.06243 -8.130954,0.425283 -12.213402,0.246494 -3.810362,-0.166926 -7.541844,-0.772154 -11.37486,-0.678142 -2.489104,0.06099 -4.902896,0.790116 -7.400372,0.81985 -5.451752,0.06483 -10.847349,-0.5225 -16.308292,0.02391 -4.236755,0.423859 -8.513503,1.748003 -12.471181,3.265492 1.198439,-1.672485 3.087704,-2.733354 4.418303,-4.277039 0.72083,-0.836232 0.937321,-1.924009 1.512348,-2.829481 0.456375,-0.718649 1.519024,-0.525349 1.704023,-1.527549 0.439081,-2.378826 -2.375154,-4.250442 -2.558661,-6.440553 -0.07166,-0.855572 0.923945,-2.552518 1.362359,-3.289394 0.394835,-0.663296 0.870395,-1.513706 1.512326,-1.959642 0.894744,-0.621632 2.023318,-0.766078 2.863822,-1.511457 0.911771,-0.808566 1.118715,-1.928149 1.847936,-2.8273 1.392761,-1.717288 2.544148,-2.526833 1.727503,-4.939089 2.567385,-0.609836 3.886055,-2.392024 5.518544,-4.285296 0.363164,-0.421143 2.057794,-2.188753 0.640305,-2.409117 -1.487175,-0.231337 -2.082989,1.484838 -2.81468,2.446064 -0.889559,1.168458 -2.134625,2.042926 -3.481538,2.603863 l -2.054834,-1.325412 -2.741677,-2.707314 -2.055702,0.0027 -1.370194,-0.629444 -0.959378,2.329572 c -1.667411,0.145403 -3.094959,0.476228 -4.796512,0.232984 -1.83516,-0.262318 -3.472768,-1.140883 -5.344674,-0.492944 -1.362893,0.47171 -3.693622,2.061356 -3.050735,3.823201 0.546381,1.497347 2.722759,2.47088 4.147059,2.87818 -0.850209,1.405937 -1.487242,2.698922 -2.048312,4.248349 -0.264634,0.73069 -0.314578,1.705092 -0.868104,2.285214 -1.589979,1.666876 -4.638667,2.882875 -6.813954,3.510671 -0.90298,0.260516 -2.054767,0.245538 -2.877734,0.686822 -0.743599,0.398819 -1.572619,1.15566 -2.007472,1.877047 -0.338347,0.561339 -0.728597,1.643351 -1.555792,1.59058 -0.553548,-0.03535 -1.115576,-0.700621 -1.507117,-1.042418 -1.409387,-1.23051 -2.4253872,-2.84762 -3.6671366,-4.236175 -3.2457942,-3.629479 -7.35045426,-6.18411 -10.4141873,-10.026853 -0.4636312,-0.581325 -0.303538,-1.361714 -0.5277307,-2.045264 -0.3211208,-0.979053 -1.0498959,-1.975422 -1.7444409,-2.728635 -0.5296889,-0.574336 -1.2758029,-0.898372 -1.8183782,-1.464517 -0.3330053,-0.347384 -0.4354089,-0.793855 -0.8924299,-1.017647 -2.477512,-1.212571 -5.1762564,-0.579767 -7.7968354,-0.842886 -1.259844,-0.126352 -2.565182,-0.852568 -3.700188,-1.390603 -3.607422,-1.710033 -7.176384,-3.763642 -10.141163,-6.460985 -1.264897,-1.150776 -1.962869,-2.819056 -3.152472,-4.047526 -0.728864,-0.75267 -1.691024,-1.2541 -2.416506,-2.01006 -1.008654,-1.05096 -2.455189,-2.0289 -2.653853,-3.47197 -0.09987,-0.72531 0.659469,-1.54277 0.812884,-2.04049 0.193478,-0.68359 0.946336,-0.43376 1.379742,-0.18475 1.070617,0.61504 2.066741,1.35735 2.802105,2.36219 1.213128,1.65781 1.329998,4.06136 2.313035,5.89325 1.361936,2.53778 3.826651,4.493789 6.161475,6.083234 1.330999,0.90614 3.304618,1.59679 4.894753,1.824009 0.502269,0.07167 1.599349,0.203916 1.823141,-0.416891 0.436633,-1.210657 -1.50981,-2.856145 -2.234357,-3.528477 -1.438299,-1.334405 -3.22347,-2.185275 -4.654358,-3.563685 -1.671928,-1.61081 -2.869009,-3.7617 -4.253581,-5.60592 2.83311,0.90614 5.480641,2.45886 7.948539,4.1049 2.748844,1.83349 4.35151,3.47308 7.811614,3.43198 1.515664,-0.018 4.129209,-0.47541 5.2485914,-1.58754 0.5500763,-0.54653 0.6635409,-1.68937 0.9802546,-2.38652 0.2514795,-0.55324 1.7529875,-2.36047 0.8328931,-2.85383 -0.4125291,-0.22119 -0.7956127,0.53734 -0.9585323,0.79855 -0.5924754,0.94958 -0.6170022,2.24862 -1.2693257,3.13377 -1.1012874,1.49464 -4.6533341,1.85063 -6.3414431,1.6371 -0.85584,-0.10826 -1.38909,-0.7233 -2.055702,-1.2024 -1.323833,-0.95123 -2.62187,-1.88813 -3.974058,-2.80208 -3.082674,-2.08348 -6.55246,-3.25461 -9.867294,-4.86433 -1.544085,-0.74979 -3.371544,-2.20693 -5.070826,-2.45171 -0.174226,-0.0251 -0.335788,-0.0332 -0.48729,-0.0269 z m 5.009955,4.24662 h 0.136923 l 6.349256,8.38105 4.066222,3.67889 c -3.93838,-0.321632 -7.561781,-4.20969 -9.376532,-7.40038 -0.576962,-1.01453 -1.51533,-3.51196 -1.175869,-4.65956 z m 71.711133,20.723143 c 0.48907,-0.07846 1.391093,0.622388 1.607963,0.929821 -0.5653,0 -1.227951,0.09706 -1.781855,-0.01513 -0.426485,-0.08662 -0.63276,-0.423836 -0.136924,-0.532938 0.03063,-0.242733 0.147785,-0.355507 0.310816,-0.381659 z m -11.214029,0.411662 c 0.830267,-0.01202 1.679029,0.277719 2.406513,0.929375 -1.320516,1.075135 0.442131,1.370082 1.370193,1.370639 v 0.136923 c -2.461576,0.36194 -4.800851,1.190448 -7.126083,-0.136923 0.633317,-1.420984 1.965629,-2.279917 3.349377,-2.300014 z m -38.1590529,0.655528 c 2.6385179,0.395502 4.684605,3.397206 5.6189662,5.75589 -2.2716147,-1.131312 -4.7814886,-3.305265 -5.6189662,-5.75589 z m 47.9650739,0.835496 c 1.302266,-0.0022 2.7559,1.104137 3.83798,1.614484 0.520386,0.245448 1.141928,0.27091 1.603623,0.641619 0.438814,0.35248 0.868258,0.991583 0.908543,1.565808 0.06399,0.914909 -1.383258,1.584414 -1.820982,2.333912 -0.364121,0.623545 -0.532805,1.375824 -1.116755,1.848357 -1.247515,1.009055 -2.905867,1.192362 -4.066202,2.423028 -0.864897,0.91738 -1.288577,2.760819 -1.675333,3.949263 h -0.136946 l -3.28895,-4.796934 c 1.060847,-0.849541 -0.03539,-2.30135 -1.231512,-2.185681 -1.427304,0.138125 -2.060375,2.102017 -3.428076,2.459973 1.264496,-3.19122 4.865041,-5.456469 7.379944,-7.624234 0.948851,-0.818025 1.049919,-1.74827 2.487373,-2.155702 0.178343,-0.05052 0.361271,-0.07358 0.547293,-0.07389 z m -50.12772,0.485131 c 0.20908,-0.01513 0.4228344,-0.01046 0.64075,0.01647 0.6050504,0.07496 0.8763604,0.976604 1.1945656,1.403645 0.6850857,0.919717 1.6608667,1.806493 2.5204006,2.564759 3.6422319,3.213699 8.289824,4.925912 11.7734752,8.285416 1.51188,1.458019 2.3268563,3.532995 3.7375794,5.034726 1.6223402,1.726769 3.9874782,2.705177 5.3464102,4.671763 0.476629,0.689893 0.713285,1.670704 0.967212,2.466918 0.623145,1.953988 -0.494767,3.837423 -0.796814,5.755912 -0.08389,0.532293 -0.383818,1.861979 0.255619,2.162646 1.563003,0.735119 2.406824,-2.646998 2.60994,-3.533262 0.356731,-1.55695 0.947915,-4.565064 0.09782,-6.028024 -0.70249,-1.20872 -2.657547,-2.363735 -2.840342,-3.836689 -0.08141,-0.65673 0.72221,-1.073711 0.775938,-1.784013 -0.821053,-0.09455 -1.04865,-1.00812 -0.130847,-1.264118 0.710702,-0.198308 1.898168,0.352703 2.597787,0.527731 6.040242,1.510366 5.877546,9.255944 5.724597,14.166523 -0.02894,0.931089 2.965737,1.653499 1.495365,2.829903 -2.961529,2.369633 -7.079566,3.802591 -10.645858,4.914317 -1.020161,0.317938 -2.778201,1.198861 -3.837556,0.932447 -1.7170428,-0.431692 -3.5113173,-1.974709 -4.9334353,-2.972948 -3.5981184,-2.525876 -6.77787661,-5.526044 -10.2785327,-8.151541 -0.8635178,-0.647539 -1.9655623,-1.01856 -2.8777335,-1.628818 -3.8733015,-2.591912 -7.8924735,-5.988094 -9.3156825,-10.586744 -0.872309,-2.818597 0.700955,-5.884289 1.296279,-8.634068 0.364811,-1.685394 0.327041,-3.39921 1.229353,-4.933436 0.704449,-1.197926 1.930218,-2.273885 3.393712,-2.37956 z m 41.951829,2.100038 c 0.94923,0.05266 1.953788,0.247673 2.694739,0.279523 v 0.136923 c 0,0 -2.128482,1.266366 -2.603886,2.329572 -0.01869,0.04171 0.02333,0.09808 0,0.137369 -0.292121,0.492186 -1.507096,0.822031 -1.507096,0.822031 v -0.136946 c 0,0 0.0098,-0.575382 0.136924,-0.822454 0.02956,-0.05745 0.122636,-0.07392 0.136924,-0.136924 0.182194,-0.803136 0.112775,-1.862668 -0.822009,-2.329571 0.297907,-0.157222 0.655684,-0.239528 1.045445,-0.273425 0.292342,-0.02544 0.602535,-0.02372 0.918959,-0.006 z m -1.416243,3.842342 c -0.32822,1.030021 -1.971015,2.325298 -1.507562,3.426318 l -0.822454,0.274292 c 0.360137,-1.247892 1.36138,-2.837916 2.330016,-3.70061 z m -62.813233,1.145445 c 0,0 -0.06176,0.266013 -0.304271,0.695524 0,0 0,0 0,0.0022 -0.08072,0.142888 -0.181438,0.303782 -0.306477,0.479054 -0.308344,0.429512 -0.665388,0.845223 -1.187175,1.397992 -1.124368,1.190003 -1.876313,1.854524 -3.461529,3.390686 -1.194076,1.156039 -2.568565,2.52118 -3.819306,4.012294 -0.290584,0.345025 -0.577474,0.70367 -0.858088,1.072865 -0.05866,0.07705 -0.11293,0.159582 -0.170843,0.23777 -0.197907,0.267548 -0.394435,0.536499 -0.580768,0.817669 -0.214377,0.32299 -0.418338,0.656152 -0.611193,0.998528 -0.02524,0.04484 -0.05212,0.08825 -0.07695,0.133451 -0.05025,0.09148 -0.09726,0.185288 -0.145626,0.27821 -0.05582,0.107256 -0.112441,0.213776 -0.165613,0.32299 -0.04322,0.08878 -0.08302,0.179835 -0.124326,0.26993 -0.04369,0.09519 -0.09023,0.188537 -0.131715,0.285177 -0.01781,0.04215 -0.03568,0.08431 -0.05304,0.126507 -0.73109,1.792137 -1.013128,3.699831 -1.083281,5.55549 -0.07681,1.936161 0.04669,3.867224 0.134765,5.705901 0.08805,1.89601 0.152124,3.68837 -0.04433,5.452041 -0.198487,1.761022 -0.661516,3.417882 -1.511903,4.815207 -0.417337,0.689492 -0.905495,1.315197 -1.458864,1.853566 -0.521588,0.508901 -1.106273,0.943687 -1.713171,1.313238 -1.307273,0.798618 -2.86883,1.375447 -4.182269,1.897034 -1.949627,0.771152 -3.520844,1.483035 -4.962993,2.358706 -3.817036,2.320579 -5.38596,4.591326 -5.38596,4.591326 0,0 0.107077,-0.135031 0.328198,-0.370797 0.663319,-0.707343 2.352073,-2.318555 5.248592,-3.888414 1.458953,-0.791762 3.023181,-1.410946 4.992995,-2.095697 1.328884,-0.459936 2.938338,-0.982993 4.37528,-1.780541 0.667369,-0.371666 1.320182,-0.822322 1.918778,-1.364987 0.633161,-0.575515 1.195477,-1.245644 1.676647,-1.98744 0.98573,-1.527482 1.557751,-3.320688 1.808808,-5.201229 0.251835,-1.867788 0.231782,-3.732371 0.173869,-5.640265 -0.05362,-1.854814 -0.14961,-3.756254 -0.05607,-5.597222 0.09299,-1.761223 0.35119,-3.514522 1.008076,-5.09384 v 0 c 0.03717,-0.09125 0.07946,-0.180859 0.119096,-0.271244 0.05413,-0.122991 0.10819,-0.245893 0.166502,-0.367325 0.02137,-0.04438 0.04427,-0.088 0.06606,-0.132161 0.06513,-0.131738 0.131292,-0.262964 0.200845,-0.392965 0.0664,-0.12426 0.142933,-0.244157 0.212997,-0.366881 0.137814,-0.241219 0.274136,-0.483417 0.423836,-0.719005 0.04772,-0.07512 0.09993,-0.147562 0.148675,-0.222145 0.405874,-0.620897 0.840615,-1.225613 1.286708,-1.813125 1.128463,-1.480098 2.411254,-2.944793 3.489372,-4.180979 1.355704,-1.553478 2.216729,-2.523962 3.1281,-3.741051 0.459313,-0.612818 0.776405,-1.092051 1.030689,-1.562759 0.105408,-0.193923 0.186022,-0.369418 0.248653,-0.524237 0,0 0,-0.0022 0,-0.0022 0.06317,-0.156398 0.107455,-0.291297 0.138236,-0.401668 0,0 2.01e-4,0 0,-0.0022 0.06125,-0.220008 0.06955,-0.342109 0.06955,-0.342109 z m 65.417098,1.047626 0.548162,0.136923 0.136924,0.822032 -0.959401,-0.27387 z m -1.918779,2.08439 c 1.539701,-0.22132 2.612411,0.579901 3.509781,1.752721 1.268213,1.657283 2.135649,3.66086 3.138562,5.481597 0.789758,1.434049 1.804155,2.941033 2.259573,4.522666 -4.102946,1.30754 -4.998469,5.25667 -8.22283,7.578585 -1.516376,1.091984 -3.578755,2.055947 -5.473763,0.993297 -1.090604,-0.611482 -0.551078,-3.634708 -0.556419,-4.734771 -0.0087,-1.812969 -0.5937,-3.342232 -0.970707,-5.070381 -0.175695,-0.805673 0.02339,-1.653167 -0.203004,-2.466918 -0.647271,-2.327035 -2.735424,-2.9275 -4.856049,-2.87818 v -0.273847 c 4.196425,-0.03466 7.156063,-4.298472 11.374856,-4.904769 z m -53.143267,1.266722 c 0,0 -0.678253,1.030556 -1.662292,2.922091 -0.926415,1.780721 -2.323695,4.761191 -2.794715,8.231511 -0.172246,1.282814 -0.20385,2.683365 0.03218,4.114476 0.186868,1.122786 0.542709,2.249847 1.075447,3.3285 0.913908,1.830352 2.238831,3.372167 3.660638,4.843896 0.607187,0.633762 1.220472,1.251788 1.769658,1.88704 0.487913,0.569373 0.932336,1.141438 1.235429,1.75143 0.487935,0.964653 0.640861,2.021872 0.169529,3.371544 -0.65762,1.953365 -2.153565,3.631437 -3.673658,5.264683 -1.812635,1.915641 -3.658167,3.689772 -5.597221,5.294686 -2.420179,2.001751 -4.861012,3.651134 -7.390383,4.906482 -3.1145,1.544598 -6.103251,2.350471 -8.858372,2.563001 -3.115369,0.243533 -5.772538,-0.312752 -7.474268,-0.808121 -1.744998,-0.507944 -2.669076,-0.959378 -2.669076,-0.959378 0,0 0.885618,0.520608 2.606913,1.149361 1.675089,0.611906 4.339958,1.353234 7.56946,1.282369 2.849712,-0.06523 6.008571,-0.73848 9.303953,-2.209608 2.673572,-1.192451 5.271026,-2.808114 7.816377,-4.799116 2.041614,-1.595944 3.979155,-3.375929 5.855445,-5.303788 1.601975,-1.61967 3.234821,-3.480958 4.080556,-5.832409 0.631602,-1.808607 0.433918,-3.3072 -0.255619,-4.670449 -0.406943,-0.793721 -0.932537,-1.477538 -1.478406,-2.087864 -0.609123,-0.686509 -1.2523,-1.31484 -1.863582,-1.924008 -1.413727,-1.420739 -2.691667,-2.78085 -3.554984,-4.370495 -0.51273,-0.933115 -0.880389,-1.919669 -1.101555,-2.913812 -0.284375,-1.269036 -0.333451,-2.563045 -0.25386,-3.777129 0.212396,-3.301169 1.339523,-6.354241 2.090934,-8.193273 0.801155,-1.960844 1.361469,-3.06162 1.361469,-3.06162 z m 49.854296,20.631425 v 0.137369 h -0.685509 z m 2.483454,4.376593 c 0,0 -0.819783,0.194213 -2.27088,0.588158 -1.012862,0.274938 -2.421002,0.674802 -4.000565,1.188466 -1.344421,0.437168 -2.940854,0.99499 -4.576104,1.691426 -1.276025,0.54242 -2.697453,1.207363 -4.019706,2.100928 -1.347535,0.930021 -2.266652,2.240011 -3.204195,3.588036 -0.864966,1.205849 -1.765096,2.485814 -2.9746626,3.175061 -0.5521902,0.334543 -1.2290406,0.501913 -1.946176,0.60859 -0.748651,0.106164 -1.5274153,0.124972 -2.351739,0.169084 -0.7842178,0.03808 -1.6153074,0.09811 -2.4551891,0.306476 -0.8003983,0.195214 -1.593585,0.578498 -2.23698328,1.199329 -0.41887255,0.414531 -0.77099666,0.888556 -1.05023072,1.39975 -2.2076489,4.034173 -0.077097,10.091353 -2.852516,13.284086 -3.5126305,4.040739 -10.6267173,6.183977 -15.3928263,6.952192 -3.526407,0.357399 -6.558447,0.214599 -9.752561,0.895924 -1.85203,0.39508 -3.704483,0.923344 -5.376389,1.834447 -1.4318,0.7828372 -2.702328,1.8703474 -3.655408,3.1980978 -1.101198,1.5174883 -1.785505,3.2945804 -2.247844,5.1003608 -0.592097,2.31205543 -0.864097,4.690103 -1.249339,7.0382804 -0.05753,0.3534381 -0.117205,0.7065195 -0.180837,1.058933 -0.755796,-0.3101928 -1.481633,-0.6690162 -2.199592,-1.0667671 -0.935764,-0.5261719 -1.865429,-1.1127714 -2.676466,-1.8348699 -0.392765,-0.3529039 -0.758287,-0.7507212 -0.982858,-1.2341383 -0.458757,-0.9482721 -0.668772,-1.98835293 -0.983749,-2.98770446 -0.721609,-2.38855164 -0.810437,-4.96174604 -0.265168,-7.39603554 0.622789,-2.8267437 2.068477,-5.4487907 4.046214,-7.5538137 0.875159,-0.939926 1.865652,-1.76603 2.913389,-2.506491 0.911058,-0.648295 1.871127,-1.243107 2.847286,-1.771416 2.666384,-1.447091 5.561923,-2.45826 8.499749,-3.217661 1.531844,-0.395347 3.077822,-0.736076 4.633059,-1.025904 1.914349,-0.348341 3.878264,-0.586733 5.835012,-0.555996 0.173291,0 0.374626,0.0098 0.529889,0.01424 1.056641,0.04309 2.110699,0.169107 3.142901,0.401223 0.08811,0.02114 0.191297,0.04345 0.28344,0.06695 0.763541,0.191564 1.520271,0.424993 2.236538,0.754215 0.120009,0.05671 0.271778,0.131471 0.401223,0.201268 0.947894,0.508479 1.798036,1.194922 2.510853,1.999192 0.408968,0.517871 0.631046,1.184617 1.1628275,1.60231 0.2135312,0.158423 0.4513,0.280724 0.6755153,0.422967 -0.050679,-0.441796 -0.070732,-0.894655 -0.232984,-1.314106 -0.3240364,-0.884595 -0.9482718,-1.623386 -1.6353608,-2.252185 -0.890315,-0.804048 -1.922651,-1.453523 -3.041165,-1.889666 -1.932578,-0.78424 -4.030145,-1.09599 -6.108014,-1.092407 -2.581697,0.0022 -5.136262,0.437345 -7.668148,0.900286 -3.190708,0.605562 -6.32524,1.541237 -9.293514,2.864246 -2.675553,1.197192 -5.227514,2.721224 -7.409078,4.690436 -1.827437,1.647157 -3.377376,3.628588 -4.392663,5.877612 -0.874713,1.9264579 -1.35181,4.0317697 -1.40409,6.1462741 -0.02996,1.5005962 0.25484,2.9893735 0.682926,4.4222201 0.284397,0.95977813 0.619228,1.90335469 0.938947,2.8516487 -0.949563,-0.4680155 -1.719825,-1.21390651 -2.471281,-1.94399558 -0.994344,-0.96937112 -2.007204,-1.92038052 -2.966849,-2.92467332 -1.060825,-1.1003074 -2.07353,-2.2497805 -2.9851,-3.4776198 -0.210038,-0.2848423 -0.430647,-0.5918966 -0.63423,-0.8928749 -0.159269,-0.2336292 -0.300444,-0.4531699 -0.453815,-0.6933656 -0.526017,-0.8353409 -1.004559,-1.7176654 -1.413661,-2.6060227 -0.555952,-1.209321 -1.009746,-2.489152 -1.323677,-3.791485 -0.135966,-0.560626 -0.250077,-1.153324 -0.332983,-1.720982 -0.143623,-0.982526 -0.20612,-1.994519 -0.179969,-2.97642 0.0093,-0.335788 0.02811,-0.653615 0.05654,-0.985041 0.01624,-0.184887 0.03937,-0.4012 0.06432,-0.597705 0.0233,-0.186467 0.05326,-0.385309 0.08129,-0.563809 0.15878,-0.96601 0.408368,-1.917265 0.751612,-2.834266 0.0714,-0.187713 0.155819,-0.403092 0.23995,-0.598573 0.710569,-1.674933 1.982121,-2.905243 3.246372,-4.211849 0.131605,-0.134186 0.515734,-0.48197 0.660737,-0.620741 1.042173,-0.998573 1.804713,-2.050405 3.045104,-2.786014 0.71994,-0.422878 1.137254,-0.7803 1.700106,-1.178918 0.638057,-0.451835 1.900528,-1.374534 1.900528,-1.374534 -1.68555,0.404339 -3.316103,1.061514 -4.776504,2.000082 -1.909497,1.214752 -3.616346,2.754698 -4.998224,4.548282 -0.941105,1.219493 -1.698703,2.578714 -2.258284,4.013185 -0.425393,1.111926 -0.598707,2.299636 -0.688557,3.481092 -0.07996,1.032225 -0.158067,2.06781 -0.110861,3.103774 0.08952,2.507448 0.724458,4.982244 1.773597,7.257353 1.256818,2.743904 3.063266,5.2021643 5.086897,7.4277745 2.072016,2.2768899 4.381645,4.3226657 6.752659,6.2810164 0.83583,0.711326 1.41148,1.6654959 1.944863,2.6108078 0.46372,0.8318029 0.900109,1.6798072 1.422341,2.4773791 0.33325,0.5414852 0.648985,1.1370536 1.2024,1.4866852 0.09646,0.061029 0.19873,0.1130204 0.305141,0.1543284 -0.04587,0.1840859 -0.09199,0.3680376 -0.138216,0.5520576 0.640439,0.182816 1.2809,0.365856 1.921383,0.548606 -0.382772,-0.590538 -0.765677,-1.1814332 -1.196746,-1.7383863 -0.693343,-0.9161559 -1.43002,-1.8021313 -2.05528,-2.7677406 -0.03578,-0.05631 -0.105029,-0.163521 -0.139527,-0.220832 -0.303516,-0.4922976 -0.573268,-1.0087881 -0.762918,-1.5562382 1.154437,0.7588892 2.317954,1.5048476 3.458079,2.2852362 0.340261,0.2298018 0.680434,0.4596246 1.020673,0.6894263 0,0.8775171 0.01113,1.7552133 0.0047,2.6325746 l -0.389939,7.835496 c -10.070653,0 -19.789873,0.381792 -29.698009,2.238296 -2.931349,0.549276 -5.929425,0.970885 -8.774464,1.892694 -2.850669,0.923656 -5.380685,2.041791 -7.851164,3.746704 -1.014753,0.700265 -2.358149,1.720137 -2.530394,3.052049 -0.197819,1.530175 0.808944,2.54751 1.606648,3.694535 l -0.153882,0.153883 c -3.576374,-2.518777 -7.041174,-7.189938 -11.545696,-7.913773 -3.52541,-0.566523 -7.87665,0.164901 -10.77584,2.311766 -1.002,0.741996 -1.54524,1.72806 -2.36912,2.609517 -0.7537,0.806497 -1.76701,1.333448 -2.43912,2.225232 -1.6515,2.191358 -1.58001,5.43871 -1.0711,8.002444 1.80052,9.070234 8.21997,16.089775 16.96339,18.934769 -2.20413,1.824674 -4.97485,2.92679 -7.23518,4.696954 -3.92337,3.072376 -7.41429,7.697088 -9.20093,12.390769 -2.11192,5.548216 -0.0187,10.28034 3.04248,14.932466 5.56039,8.449693 13.77558,13.927512 23.245721,17.262052 8.313793,2.92733 16.794691,4.39893 25.554422,5.23946 13.042399,1.25154 25.914491,1.61771 38.947165,0.0182 2.596386,-0.32019 5.258896,-0.25691 7.856818,-0.62945 6.146006,-0.88515 12.2183204,-2.62445 17.8515087,-5.28164 4.6739217,-2.20476 9.6132556,-4.14234 13.8548393,-7.14389 2.385481,-1.687974 4.367758,-3.845124 6.295795,-6.013243 1.454814,-1.636093 3.26282,-3.433016 4.172276,-5.452907 l -2.30914,1.38539 v -0.461651 c 1.320517,-0.668721 1.794897,-2.257236 2.322183,-3.540647 1.479206,-3.600701 1.424544,-7.020191 -0.148253,-10.62196 C 20.116116,68.432666 12.176348,62.283412 5.1077095,59.120836 2.9699021,58.164396 0.56051806,56.892644 -1.8197099,56.77041 1.345625,50.583183 1.8756479,43.062866 2.8185558,36.295918 3.2751318,33.019098 3.7359575,29.65087 1.5248815,26.905475 -1.5114536,23.13529 -6.3888247,21.846111 -10.902386,20.824859 c -9.714546,-2.198145 -20.220587,-2.847487 -30.16618,-2.847754 0.60002,-1.99601 1.89937,-4.633526 3.009003,-6.353172 0.360894,-0.519674 0.620854,-1.116244 1.077629,-1.564051 0.127309,-0.1265735 0.306587,-0.2249931 0.490339,-0.1699744 0.429021,0.100934 0.796703,0.3598694 1.168057,0.5855534 0.300801,0.195258 0.609992,0.379411 0.943732,0.513374 2.141769,0.957999 4.269516,1.984414 6.507056,2.716016 3.577642,1.205271 7.266746,2.139054 11.032324,2.494761 3.22603,0.303405 6.517228,0.159225 9.661686,-0.659 1.6934288,-0.440885 3.3420544,-1.065476 4.8878096,-1.887485 C -0.88394644,12.894193 0.44553938,11.930319 1.424904,10.65238 2.1940752,9.6558553 2.7072943,8.4601767 2.8689899,7.2099699 3.0300622,6.0646809 2.8930735,4.8706276 2.4182014,3.8118949 1.8642522,2.5568805 0.89675105,1.5261472 -0.20306762,0.7259499 -1.618843,-0.29995414 -3.2459465,-1.0011093 -4.9156711,-1.4975683 -6.1056522,-1.8511174 -7.3291509,-2.0848131 -8.5632664,-2.2152606 -13.944998,-2.813255 -19.438458,-1.9588845 -24.482488,-0.03173728 c -3.050379,1.16716688 -5.952885,2.72547448 -8.600171,4.63913378 -1.366299,1.008588 -2.450648,2.3339115 -3.74192,3.4284996 -0.2509,0.1518578 -0.562317,0.111306 -0.839414,0.07607 -0.428732,-0.070779 -0.842352,-0.2137769 -1.2389,-0.3890486 -0.04214,-0.020921 -0.141665,-0.064276 -0.205163,-0.09695 -0.462474,-0.2336519 -0.924502,-0.5028252 -1.268036,-0.8980836 -0.221766,-0.2670812 -0.23196,-0.6378119 -0.222144,-0.9685249 0.0325,-0.6188049 0.19508,-1.2207842 0.273447,-1.8340027 0.194346,-1.3102778 0.328086,-2.6408766 0.581613,-3.93537516 0.318651,-1.61203594 0.680056,-3.25213674 1.419315,-4.73868904 0.635764,-1.2673001 1.519291,-2.4143917 2.608203,-3.3250277 0.156711,-0.1324058 0.342376,-0.2781649 0.517314,-0.4068981 1.523365,-1.1236995 3.363844,-1.6958993 5.160344,-2.2278363 0.730534,-0.216313 1.497035,-0.291875 2.253498,-0.38255 1.078541,-0.129289 2.166785,-0.158401 3.250712,-0.229511 1.687687,-0.110705 3.193357,-0.108501 5.038644,-0.293434 0.146004,0.006 0.293522,0.0038 0.441218,-0.02003 4.902076,-0.7894 12.3737172,-2.988681 16.2148359,-7.407339 3.15046753,-3.624159 1.055616,-9.935445 3.01988709,-13.524905 0.2196964,-0.400577 0.49200823,-0.770196 0.81070302,-1.086754 0.40471679,-0.418049 0.98975849,-0.690204 1.61232439,-0.862004 0.680078,-0.183663 1.4266588,-0.240818 2.1965434,-0.296037 0.8019335,-0.05353 1.6214498,-0.09179 2.4634682,-0.225617 0.814909,-0.124549 1.6442413,-0.367816 2.3926029,-0.826795 1.4626481,-0.94135 2.4251641,-2.354655 3.2328841,-3.611072 0.916044,-1.380543 1.682679,-2.624452 2.829481,-3.461106 1.204937,-0.896213 2.556547,-1.606671 3.78581,-2.206558 1.570304,-0.765099 3.125607,-1.407964 4.433104,-1.920069 1.534114,-0.600822 2.918619,-1.091851 3.904928,-1.431912 1.41938,-0.489404 2.222627,-0.745513 2.222627,-0.745513 z m -41.872283,47.9363859 v 0 c 1.9215152,0.011575 3.8676701,0.1764511 5.7506812,0.61640074 0.5503657,0.12793234 1.0852852,0.27498264 1.6262135,0.45123439 0.239616,0.0788794 0.4729121,0.16038165 0.7155329,0.25254697 0.7029351,0.2662577 1.3872864,0.58410709 2.033957,0.96808074 0.041463,0.0260857 0.1442903,0.0880258 0.1851987,0.11301956 1.09400934,0.6817915 2.08020619,1.5957216 2.667763,2.7573248 0.2923652,0.569217 0.4772738,1.1900694 0.5703299,1.822273 0.013131,0.08965 0.029888,0.2226566 0.039553,0.3299341 0.031831,0.3331171 0.031158,0.6969482 0.00219,1.0124381 -0.096394,1.1194716 -0.5913178,2.178916 -1.30366766,3.0385607 -0.0465857,0.0598 -0.0934784,0.112174 -0.15301526,0.18215 -0.96727992,1.100531 -2.21172198,1.919402 -3.51022638,2.577779 -0.4566206,0.230914 -0.9300442,0.443065 -1.3945208,0.632938 -0.4912511,0.199154 -1.0273946,0.39597 -1.5497164,0.562918 -1.2301316,0.399531 -2.4928252,0.69706 -3.7701852,0.898973 -0.1805465,0.02662 -0.3940555,0.05965 -0.5877125,0.08433 -0.386444,0.05324 -0.798439,0.09711 -1.198482,0.133452 -0.162363,0.01224 -0.359447,0.02998 -0.535542,0.04044 -0.827374,0.05697 -1.68397,0.07572 -2.524319,0.0578 -0.40218,-0.0073 -0.838101,-0.0264 -1.240214,-0.05041 -2.478603,-0.15237 -4.93181,-0.593165 -7.33474,-1.233692 -2.131331,-0.567148 -4.231279,-1.29481 -6.28362,-2.12875 -1.807829,-0.736453 -3.646194,-1.383458 -5.379017,-2.2917342 -0.368393,-0.1939009 -0.730734,-0.3989747 -1.082836,-0.6211863 0.992318,-1.407185 2.341879,-2.5134574 3.746705,-3.487636 0.930978,-0.6385244 1.885994,-1.2418613 2.852071,-1.8257455 0.955617,-0.5687047 1.93734,-1.0904923 2.948154,-1.5679671 0.832181,-0.3926758 1.694408,-0.7585325 2.562578,-1.08762121 1.018002,-0.38542052 2.088708,-0.73529694 3.138983,-1.02285469 0.616513,-0.16968533 1.239346,-0.32196622 1.857061,-0.45557329 0.661039,-0.14277028 1.331457,-0.26718555 1.991393,-0.36949996 0.817891,-0.12632905 1.638209,-0.22294595 2.468676,-0.28862525 0.88967,-0.070532 1.783346,-0.1048077 2.690376,-0.1012906 z m 64.941514,0.067372 -2.356079,0.49512406 v 0.37516039 l 1.410611,0.12040948 -2.056147,10.05554127 h 1.275848 L 52.339112,4.72271 c 0.930511,-0.8404605 1.726056,-1.2306439 2.221337,-1.2306439 0.570307,0 0.810725,0.3148892 0.810725,0.9602685 0,0.1951031 -0.04536,0.5254376 -0.150412,0.9606908 L 54.57565,8.1894691 c -0.07503,0.3301788 -0.105185,0.6003986 -0.105185,0.7955008 0,0.6303563 0.345024,0.915488 1.095455,0.915488 0.390206,0 1.005962,-0.1499659 1.801396,-0.4651444 V 9.0301727 c -0.34518,0.090051 -0.630601,0.1347654 -0.840704,0.1347654 -0.495281,0 -0.765522,-0.2700196 -0.765522,-0.7502981 0,-0.2551522 0.06036,-0.5702407 0.150411,-0.9754698 l 0.525127,-2.3265224 c 0.120052,-0.5403058 0.209947,-0.9754253 0.209947,-1.3506303 0,-0.7354079 -0.480189,-1.2006407 -1.260623,-1.2006407 -0.780456,0 -1.711012,0.4802785 -2.881651,1.4258125 l 0.49557,-2.5664724 c 0.210103,-1.05058651 0.405206,-1.93607143 0.600309,-2.6564791 z m 39.397088,0.48034584 c -0.450236,0 -0.810278,0.36002551 -0.810278,0.8102799 0,0.46527738 0.360042,0.81072488 0.810278,0.81072488 0.435254,0 0.810304,-0.3604705 0.810304,-0.81072488 0,-0.43523138 -0.37505,-0.8102799 -0.810304,-0.8102799 z m 10.220729,0 c -0.45026,0 -0.81028,0.36002551 -0.81028,0.8102799 0,0.46527738 0.36002,0.81072488 0.81028,0.81072488 0.43526,0 0.81028,-0.3604705 0.81028,-0.81072488 0,-0.43523138 -0.37502,-0.8102799 -0.81028,-0.8102799 z m 24.70372,0 c -0.45025,0 -0.8103,0.36002551 -0.8103,0.8102799 0,0.46527738 0.36005,0.81072488 0.8103,0.81072488 0.43523,0 0.81071,-0.3604705 0.81071,-0.81072488 0,-0.43523138 -0.37548,-0.8102799 -0.81071,-0.8102799 z M 16.589175,-0.35027561 11.051068,9.1501599 10.22601,9.2401439 v 0.5703299 h 2.971612 V 9.2401439 l -0.915487,-0.075203 -0.12041,-0.2099704 1.606227,-2.8668501 h 3.646727 l 0.465567,2.8668501 -0.105207,0.2099704 -0.885486,0.075203 v 0.5703299 h 3.286791 V 9.2401439 L 19.440824,9.1649406 19.18565,8.8949875 17.579869,-0.35027393 Z m 0,1.47103891 0.69074,4.3222425 h -3.136803 z m 30.692174,0 -0.750298,1.5005961 -1.095455,0.4803458 v 0.4503427 l 0.930266,-0.075203 -0.81028,4.0670904 c -0.09005,0.4202302 -0.119986,0.7657669 -0.119986,1.0058952 0,0.9155099 0.405162,1.3658308 1.260645,1.3658308 0.525305,0 1.305761,-0.2255058 2.311321,-0.6607363 V 8.775002 c -0.600354,0.1951249 -1.080632,0.2999537 -1.425835,0.2999537 -0.600332,0 -0.915488,-0.3303572 -0.915488,-0.9307113 0,-0.165078 0.04496,-0.3901607 0.08998,-0.6602912 l 0.7803,-4.0071086 h 2.281319 V 2.8313315 h -2.161354 l 0.315178,-1.7105666 z m 39.742246,0 -0.750301,1.5005961 -1.095454,0.4803458 v 0.4503427 l 0.930267,-0.075203 -0.810278,4.0670904 c -0.09005,0.4202302 -0.119989,0.7657669 -0.119989,1.0058952 0,0.9155099 0.405165,1.3658308 1.260649,1.3658308 0.525279,0 1.305754,-0.2255058 2.311317,-0.6607363 V 8.775002 c -0.600357,0.1951249 -1.080632,0.2999537 -1.425835,0.2999537 -0.600332,0 -0.915488,-0.3303572 -0.915488,-0.9307113 0,-0.165078 0.04492,-0.3901607 0.08998,-0.6602912 L 87.27876,3.4768446 h 2.28132 V 2.8313315 h -2.161356 l 0.315181,-1.7105666 z m 10.956252,1.410612 c -0.930536,0 -1.92105,0.4653666 -2.686484,1.3058489 -0.795431,0.8704847 -1.245843,2.0558131 -1.245843,3.3915532 0,1.695944 0.900598,2.7316624 2.221333,2.7316624 0.88549,0 1.875912,-0.4802786 2.806423,-1.4558149 V 7.8143087 c -0.81043,0.8254593 -1.650916,1.2458671 -2.341297,1.2458671 -0.930511,0 -1.500593,-0.7356309 -1.500593,-2.0413688 0,-2.2362489 1.035644,-3.7519127 2.251331,-3.7519127 h 0.07478 l 0.870702,1.1406598 c 0.570334,-0.014914 0.945468,-0.3602484 0.945468,-0.8255039 0,-0.5703299 -0.570351,-1.0506749 -1.395805,-1.0506749 z M 27.380236,2.5761524 25.159345,3.0564983 V 3.4468592 L 26.389988,3.68681 25.144121,9.8104705 h 1.260646 l 0.945467,-5.0877639 c 0.945535,-0.8554835 1.741125,-1.2306438 2.131353,-1.2306438 0.525282,0 0.825504,0.3301797 0.825504,0.8854857 0,0.2101261 -0.04516,0.555195 -0.135188,1.0354736 l -0.900286,4.3974484 h 1.245422 l 0.97547,-5.1029879 c 0.690382,-0.8104355 1.471061,-1.2154198 2.041368,-1.2154198 0.49528,0 0.73552,0.3299122 0.73552,0.9602685 0,0.2101042 -0.03013,0.5254375 -0.135188,0.9606908 l -0.645535,2.7764436 c -0.07505,0.34518 -0.119987,0.630178 -0.119987,0.8102799 0,0.6153325 0.345047,0.900709 1.095457,0.900709 0.405229,0 1.005538,-0.1649671 1.800972,-0.4651445 V 9.0301727 c -0.34518,0.090051 -0.630155,0.1347654 -0.840282,0.1347654 -0.480255,0 -0.765498,-0.2700196 -0.765498,-0.7502981 0,-0.2401283 0.07514,-0.5702407 0.165167,-0.9754698 L 35.33485,5.1126478 c 0.120076,-0.5102808 0.179968,-0.9304665 0.179968,-1.2606462 0,-0.7954562 -0.510236,-1.2758466 -1.230643,-1.2758466 -0.720385,0 -1.650829,0.4503208 -2.74644,1.3658307 C 31.52282,3.0564781 31.072278,2.576155 30.321869,2.576155 c -0.705406,0 -1.665785,0.4652774 -2.836447,1.4258134 L 27.755374,2.576155 Z m 14.033072,0 c -1.48584,0 -2.701772,0.7054503 -3.467204,1.966163 -0.510281,0.8404604 -0.780278,1.7713046 -0.780278,2.7768659 0,1.6509179 0.795635,2.6264769 2.071349,2.6264769 0.720406,0 1.44068,-0.4206088 2.236115,-1.2610685 v 0.1204087 c 0,0.7654329 0.285132,1.1406598 0.915488,1.1406598 0.405229,0 1.020717,-0.1803686 1.846176,-0.5255495 V 8.9697433 c -0.405229,0.090051 -0.675626,0.1504109 -0.840705,0.1504109 -0.555328,0 -0.810302,-0.2104819 -0.810302,-0.6907385 0,-0.2101261 0.04491,-0.554973 0.149989,-1.0502526 l 0.540327,-2.6564565 c 0.225128,-1.1106129 0.420253,-1.8313764 0.57033,-2.1465542 h -0.7803 L 42.763916,2.9065096 C 42.29866,2.6814043 41.833538,2.5761524 41.413308,2.5761524 Z m 20.756597,0 c -0.735408,0 -1.711079,0.4356318 -2.476489,1.2310662 -0.840482,0.8855077 -1.335852,2.1460646 -1.335852,3.4067773 0,1.7409692 0.855773,2.7316623 2.266541,2.7316623 0.99056,0 1.981119,-0.4505665 2.91163,-1.3510526 V 7.8895112 c -0.870462,0.8104574 -1.711344,1.230643 -2.401727,1.230643 -0.960536,0 -1.560578,-0.7356973 -1.560578,-1.9513838 0,-0.2401283 0.01469,-0.4801902 0.04478,-0.6902944 2.67148,-0.1801011 4.097493,-1.1403696 4.097493,-2.4160833 0,-0.9005088 -0.600265,-1.4862403 -1.545798,-1.4862403 z m 4.952579,0 -2.22134,0.4803459 V 3.4468592 L 66.131785,3.68681 64.886366,9.8104705 h 1.260645 l 0.945467,-5.0877639 c 0.945535,-0.8554835 1.741126,-1.2306438 2.131351,-1.2306438 0.525288,0 0.825504,0.3301797 0.825504,0.8854857 0,0.2101261 -0.04517,0.555195 -0.13519,1.0354736 l -0.900707,4.3974484 h 1.245844 l 0.975473,-5.1029879 c 0.690382,-0.8104355 1.471058,-1.2154198 2.041367,-1.2154198 0.495282,0 0.7351,0.3299122 0.7351,0.9602685 0,0.2101042 -0.02969,0.5254375 -0.134769,0.9606908 l -0.645529,2.7764436 c -0.07503,0.34518 -0.119989,0.630178 -0.119989,0.8102799 0,0.6153325 0.345044,0.900709 1.095454,0.900709 0.405232,0 1.005538,-0.1649671 1.800977,-0.4651445 V 9.0301727 c -0.345187,0.090051 -0.63016,0.1347654 -0.840284,0.1347654 -0.480283,0 -0.765501,-0.2700196 -0.765501,-0.7502981 0,-0.2401283 0.07512,-0.5702407 0.16517,-0.9754698 l 0.510348,-2.3265224 c 0.120073,-0.5102808 0.179967,-0.9304665 0.179967,-1.2606462 0,-0.7954562 -0.510239,-1.2758466 -1.230644,-1.2758466 -0.720387,0 -1.650831,0.4503208 -2.746444,1.3658307 -0.01489,-0.8855076 -0.465453,-1.3658307 -1.215863,-1.3658307 -0.705406,0 -1.665788,0.4652774 -2.836445,1.4258134 l 0.26995,-1.4258134 z m 14.033071,0 c -1.485847,0 -2.701777,0.7054503 -3.467211,1.966163 -0.510281,0.8404604 -0.780273,1.7713046 -0.780273,2.7768659 0,1.6509179 0.795213,2.6264769 2.070927,2.6264769 0.720379,0 1.441103,-0.4206088 2.236534,-1.2610685 v 0.1204087 c 0,0.7654329 0.285134,1.1406598 0.915488,1.1406598 0.405231,0 1.020275,-0.1803686 1.845737,-0.5255495 V 8.9697433 c -0.405206,0.090051 -0.675181,0.1504109 -0.840267,0.1504109 -0.555327,0 -0.810295,-0.2104819 -0.810295,-0.6907385 0,-0.2101261 0.04492,-0.554973 0.149986,-1.0502526 L 83.01651,4.7227066 C 83.241632,3.6120937 83.436757,2.8913302 83.586835,2.5761524 H 82.806117 L 82.506161,2.9065096 C 82.040902,2.6814043 81.575785,2.5761524 81.155555,2.5761524 Z m 11.076208,0 -2.221334,0.4803459 v 0.3903609 l 1.215443,0.2251717 -0.885507,4.4722085 c -0.06006,0.3302016 -0.08998,0.6006434 -0.08998,0.7807453 0,0.6603586 0.315332,0.9906712 0.96071,0.9906712 0.570309,0 1.290671,-0.1803467 2.116133,-0.5255494 V 8.9249847 c -0.46526,0.1500778 -0.825504,0.2251718 -1.11068,0.2251718 -0.465259,0 -0.720294,-0.1953251 -0.720294,-0.5855531 0,-0.090051 0.01472,-0.2100596 0.04475,-0.3751377 l 1.080657,-5.6133133 z m 10.220287,0 -2.22089,0.4803459 v 0.3903609 l 1.21542,0.2251717 -0.88548,4.4722085 c -0.0601,0.3302016 -0.09,0.6006434 -0.09,0.7807453 0,0.6603586 0.31534,0.9906712 0.9607,0.9906712 0.57032,0 1.29066,-0.1803467 2.11612,-0.5255494 V 8.9249847 c -0.46525,0.1500778 -0.8255,0.2251718 -1.11065,0.2251718 -0.46526,0 -0.7203,-0.1953251 -0.7203,-0.5855531 0,-0.090051 0.0147,-0.2100596 0.0447,-0.3751377 l 1.08069,-5.6133133 z m 6.10844,0 c -1.48582,0 -2.70133,0.7054503 -3.46673,1.966163 -0.51031,0.8404604 -0.78031,1.7713046 -0.78031,2.7768659 0,1.6509179 0.79521,2.6264769 2.07093,2.6264769 0.72041,0 1.4411,-0.4206088 2.23654,-1.2610685 v 0.1204087 c 0,0.7654329 0.28513,1.1406598 0.91549,1.1406598 0.40523,0 1.02029,-0.1803686 1.84575,-0.5255495 V 8.9697433 c -0.40523,0.090051 -0.67521,0.1504109 -0.84028,0.1504109 -0.55533,0 -0.81073,-0.2104819 -0.81073,-0.6907385 0,-0.2101261 0.0453,-0.554973 0.15041,-1.0502526 l 0.54033,-2.6564565 c 0.22513,-1.1106129 0.42025,-1.8313764 0.57033,-2.1465542 h -0.78072 l -0.29996,0.3303572 c -0.46525,-0.2251053 -0.93082,-0.3303572 -1.35105,-0.3303572 z m 6.09366,0 -2.22131,0.4955472 v 0.3751596 l 1.23064,0.2251717 -1.24542,6.1384396 h 1.2754 l 0.93071,-5.0729856 c 0.91551,-0.8404597 1.71103,-1.2306431 2.22131,-1.2306431 0.57034,0 0.81031,0.285109 0.81031,0.9454895 0,0.195103 -0.0301,0.5254375 -0.13521,0.9606908 l -0.64509,2.7764436 c -0.075,0.3301789 -0.12041,0.6151768 -0.12041,0.8102799 0,0.6003313 0.36047,0.900709 1.09587,0.900709 0.42023,0 1.02055,-0.1501889 1.80098,-0.4503655 v -0.419919 c -0.34518,0.090051 -0.61538,0.1347654 -0.8255,0.1347654 -0.49529,0 -0.78029,-0.2552632 -0.78029,-0.7355198 0,-0.2251272 0.0747,-0.5550167 0.16475,-0.9902481 l 0.51035,-2.3265223 c 0.12005,-0.5403058 0.21039,-0.9602021 0.21039,-1.3354062 0,-0.7354307 -0.48063,-1.2010867 -1.26106,-1.2010867 -0.79546,0 -1.72555,0.4955026 -2.91122,1.4410367 l 0.26996,-1.4410367 z m 12.50205,0 -2.22134,0.4803459 v 0.3903609 l 1.21545,0.2251717 -0.88549,4.4722085 c -0.0601,0.3302016 -0.09,0.6006434 -0.09,0.7807453 0,0.6603586 0.31534,0.9906712 0.9607,0.9906712 0.57031,0 1.29067,-0.1803467 2.11613,-0.5255494 V 8.9249847 c -0.46526,0.1500778 -0.8255,0.2251718 -1.11068,0.2251718 -0.46526,0 -0.7203,-0.1953251 -0.7203,-0.5855531 0,-0.090051 0.0147,-0.2100596 0.0447,-0.3751377 l 1.08067,-5.6133133 z m 5.07254,0 c -1.44079,0 -2.58125,1.0358521 -2.58125,2.2665406 0,0.8404596 0.57032,1.2455777 1.42581,1.890957 0.63036,0.4802567 1.03548,0.825504 1.03548,1.3958112 0,0.7954571 -0.51038,1.2758693 -1.36585,1.2758693 -0.46526,0 -0.84053,-0.1803685 -1.08066,-0.5255713 l 0.27037,-0.750298 c -0.24013,-0.180102 -0.43541,-0.2699304 -0.64553,-0.2699304 -0.46526,0 -0.78028,0.2997989 -0.78028,0.7650771 0,0.7804333 0.73545,1.3210503 1.99614,1.3210503 1.63592,0 2.74646,-1.0055832 2.74646,-2.3113211 0,-0.9004869 -0.61531,-1.2909815 -1.51581,-1.9813642 -0.70538,-0.5403058 -1.12544,-0.8555281 -1.12544,-1.3958339 0,-0.5853302 0.4499,-1.0054712 1.05023,-1.0054712 0.1651,0 0.31549,0.044912 0.46557,0.1499877 l 0.63031,0.8707076 c 0.55531,-0.030022 0.87029,-0.3452919 0.87029,-0.7655213 0,-0.5253046 -0.54036,-0.9306894 -1.39584,-0.9306894 z m 10.76106,0 c -1.48582,0 -2.70132,0.7054503 -3.46674,1.966163 -0.5103,0.8404604 -0.78074,1.7713046 -0.78074,2.7768659 0,1.6509179 0.79565,2.6264769 2.07137,2.6264769 0.7204,0 1.44066,-0.4206088 2.23611,-1.2610685 v 0.1204087 c 0,0.7654329 0.28514,1.1406598 0.91547,1.1406598 0.40523,0 1.02074,-0.1803686 1.84619,-0.5255495 V 8.9697433 c -0.40522,0.090051 -0.67519,0.1504109 -0.84027,0.1504109 -0.55531,0 -0.81073,-0.2104819 -0.81073,-0.6907385 0,-0.2101261 0.0449,-0.554973 0.14997,-1.0502526 l 0.54035,-2.6564565 c 0.2251,-1.1106129 0.42025,-1.8313764 0.57032,-2.1465542 h -0.78029 l -0.29996,0.3303572 C 143.87559,2.6814043 143.41005,2.5761524 142.9898,2.5761524 Z M 41.458067,3.1616862 h 0.210392 l 0.600332,0.9154872 -0.780723,3.9623062 c -0.615332,0.6603804 -1.200663,0.9906931 -1.770971,0.9906931 -0.870484,0 -1.305426,-0.6007326 -1.305426,-1.8013961 0,-2.3863259 1.290425,-4.0670904 3.046396,-4.0670904 z m 39.74224,0 h 0.210401 l 0.600331,0.9154872 -0.780727,3.9623062 c -0.61533,0.6603804 -1.200662,0.9906931 -1.770971,0.9906931 -0.870483,0 -1.305426,-0.6007326 -1.305426,-1.8013961 0,-2.3863259 1.290427,-4.0670904 3.046392,-4.0670904 z m 27.405383,0 h 0.20998 l 0.60033,0.9154872 -0.7803,3.9623062 c -0.61534,0.6603804 -1.20066,0.9906931 -1.77097,0.9906931 -0.87049,0 -1.30586,-0.6007326 -1.30586,-1.8013961 0,-2.3863259 1.29085,-4.0670904 3.04682,-4.0670904 z m 34.42933,0 h 0.20995 l 0.60033,0.9154872 -0.7803,3.9623062 c -0.61533,0.6603804 -1.20066,0.9906931 -1.77097,0.9906931 -0.87048,0 -1.30585,-0.6007326 -1.30585,-1.8013961 0,-2.3863259 1.29085,-4.0670904 3.04684,-4.0670904 z m -81.180271,0.045223 c 0.435253,0 0.7803,0.3450243 0.7803,0.8102799 0,0.9455121 -1.065588,1.8458871 -2.941633,1.9509397 0.435231,-1.8159968 1.290848,-2.7612196 2.161333,-2.7612196 z M -40.722006,7.8990815 c 1.008699,0.4856429 2.017331,0.9710628 3.025963,1.456683 -1.029153,1.3390785 -1.815195,2.8431695 -2.530394,4.3674675 -0.319451,0.681191 -0.633872,1.364564 -0.958087,2.043529 0.154239,-2.622672 0.308301,-5.244986 0.462518,-7.8676795 z m 59.247343,9.6256075 -2.296098,0.435143 v 0.420363 l 1.320628,0.149966 -0.525126,3.001614 c -0.405208,-0.180101 -0.795413,-0.255151 -1.200642,-0.255151 -1.245689,0 -2.56674,0.750432 -3.377197,2.026145 -0.48028,0.765411 -0.735097,1.696322 -0.735097,2.716884 0,1.710945 0.765054,2.686458 1.96574,2.686458 0.795435,0 1.605892,-0.4653 2.3413,-1.395833 -0.01491,0.105052 -0.01469,0.209904 -0.01469,0.299955 0,0.735408 0.315089,1.065877 1.005472,1.065877 0.390205,0 1.020717,-0.135388 1.846177,-0.435565 v -0.449921 c -0.450255,0.105052 -0.780367,0.164767 -0.97547,0.164767 -0.450255,0 -0.660759,-0.210081 -0.660759,-0.630334 0,-0.195103 0.0304,-0.480101 0.09043,-0.81028 l 1.605781,-8.990088 z m 39.472291,0.06 c -1.395767,0 -2.656746,1.395656 -3.152026,3.977085 l -1.140659,0.465567 -0.01469,0.495124 1.005472,-0.105185 -0.630312,4.307463 c -0.285154,1.996099 -0.540483,3.362086 -1.245867,4.097494 L 51.25897,30.4171 c -0.210126,0.1501 -0.330379,0.360203 -0.330379,0.600332 0,0.480256 0.330023,0.795056 0.81028,0.795056 0.720406,0 1.545866,-0.570129 2.341323,-1.695765 0.660358,-0.930511 0.930756,-2.055992 1.125881,-3.436757 l 0.600309,-4.262683 h 2.236115 V 21.742191 H 55.92637 c 0.330179,-1.951096 0.780301,-3.12198 1.35063,-3.497185 l 1.230644,1.00545 c 0.465255,-0.09003 0.735497,-0.390072 0.735497,-0.780278 0,-0.450254 -0.525015,-0.885486 -1.245422,-0.885486 z m 87.168312,0 c -1.39579,0 -2.65633,1.395656 -3.15161,3.977085 l -1.14066,0.465567 -0.0147,0.495124 1.00547,-0.105185 -0.63032,4.307463 c -0.28517,1.996099 -0.54048,3.362086 -1.24586,4.097494 l -1.56099,-0.405136 c -0.2101,0.150099 -0.32993,0.360203 -0.32993,0.600331 0,0.480257 0.33002,0.795057 0.81028,0.795057 0.7204,0 1.54586,-0.57013 2.34132,-1.695766 0.66036,-0.930511 0.93075,-2.055991 1.12588,-3.436757 l 0.60031,-4.262683 h 2.23612 v -0.675092 h -2.11614 c 0.33018,-1.951095 0.78031,-3.121979 1.35061,-3.497184 l 1.23065,1.005449 c 0.46528,-0.09003 0.73551,-0.390072 0.73551,-0.780278 0,-0.450254 -0.52545,-0.885485 -1.24584,-0.885485 z m 4.38266,0 c -1.39579,0 -2.65632,1.395656 -3.1516,3.977085 l -1.14066,0.465567 -0.0151,0.495124 1.00544,-0.105185 -0.63031,4.307463 c -0.28515,1.996099 -0.54003,3.362086 -1.24542,4.097494 l -1.56102,-0.40514 c -0.21011,0.1501 -0.33035,0.360203 -0.33035,0.600332 0,0.480256 0.33044,0.795056 0.81069,0.795056 0.72041,0 1.54587,-0.570129 2.34133,-1.695765 0.66036,-0.930511 0.93033,-2.055992 1.12543,-3.436757 l 0.60033,-4.262683 h 2.23612 v -0.675092 h -2.11615 c 0.3302,-1.951096 0.78075,-3.12198 1.35107,-3.497185 l 1.23063,1.00545 c 0.46528,-0.09003 0.73551,-0.390072 0.73551,-0.780278 0,-0.450254 -0.52545,-0.885486 -1.24584,-0.885486 z M 35.440058,18.005037 c -0.450254,0 -0.810725,0.360048 -0.810725,0.810302 0,0.465256 0.360471,0.810703 0.810725,0.810703 0.435232,0 0.81028,-0.36047 0.81028,-0.810703 0,-0.435253 -0.375048,-0.810302 -0.81028,-0.810302 z m 70.433972,0 c -0.45025,0 -0.81028,0.360048 -0.81028,0.810302 0,0.465256 0.36003,0.810703 0.81028,0.810703 0.43525,0 0.81072,-0.36047 0.81072,-0.810703 0,-0.435253 -0.37547,-0.810302 -0.81072,-0.810302 z m -149.369875,0.389938 c 0.724747,-0.05103 1.159332,-0.01157 1.038946,1.121541 -12.296264,0 -24.291016,0.440084 -36.179425,3.913609 -2.862733,0.836498 -5.713113,1.798391 -8.158931,3.567181 -1.02557,0.741684 -2.23685,1.928816 -2.286104,3.295048 -0.0268,0.744467 0.522411,1.324345 0.74638,2.001373 -1.671505,-0.867301 -2.609361,-2.966872 -1.35626,-4.612203 1.392695,-1.828372 4.311781,-3.301569 6.436635,-4.07882 10.104084,-3.695981 20.959846,-4.297738 31.558096,-5.02342 2.459818,-0.168573 4.919058,-0.140395 7.38907,-0.140395 0.296349,0 0.570018,-0.02691 0.811593,-0.04391 z m 2.912076,0.09217 c 0.649653,-0.03566 1.312081,0.103961 1.972239,0.105631 2.397499,0.0038 4.69876,0.284063 7.081303,0.448162 8.243106,0.56757 16.718395,0.842486 24.6306984,3.479801 2.6922453,0.897483 5.2443626,1.958084 7.22127603,4.077084 0.98724327,1.058043 1.84497447,2.032333 1.39930467,3.540652 l -0.4616493,-0.153883 -1.53972377,1.539278 0.1543065,-0.46165 c -0.59623637,0.344491 -0.66400855,1.043375 -1.25236623,1.404514 -3.1887498,1.956748 -6.9695518,3.150512 -10.6015223,3.983182 -0.624191,-2.24277 -5.335571,-2.45984 -7.235186,-2.948599 -2.923828,-0.752479 -5.912645,-1.659643 -8.928371,-1.951363 -4.946589,-0.478765 -9.984319,-0.0292 -14.932466,-0.02608 0.951833,-1.546667 2.499724,-2.524942 3.199855,-4.310513 0.809256,-2.063736 -0.678208,-4.903767 -1.200218,-6.916558 0.985218,-0.291297 2.233912,-0.03753 3.234198,-0.01313 2.257258,0.05542 4.524111,0.228644 6.773959,0.438614 7.284663,0.680122 15.139232,0.861916 22.0133469,3.627164 3.0295467,1.218602 7.5911613,2.661531 8.31281399,6.404474 C 0.2930137,30.373369 -0.97301783,28.711634 -1.4305503,28.150051 -3.0678701,26.140955 -5.4939915,25.07835 -7.8232739,24.134708 -15.888125,20.86777 -24.609796,21.033582 -33.069505,19.858536 c -1.97569,-0.274314 -4.023646,-0.03312 -6.004098,-0.308212 -1.064052,-0.147784 -2.929147,0.192522 -2.154834,-0.957641 0.213198,-0.06243 0.428109,-0.09377 0.644668,-0.105631 z m 118.332124,1.394076 -0.7503,1.500595 -1.095454,0.480346 v 0.450365 l 0.930267,-0.0752 -0.810287,4.067513 c -0.09005,0.42023 -0.11998,0.765321 -0.11998,1.00545 0,0.91551 0.405156,1.365831 1.26064,1.365831 0.525288,0 1.305737,-0.225506 2.3113,-0.660737 v -0.479923 c -0.600331,0.195125 -1.080631,0.299955 -1.42581,0.299955 -0.600331,0 -0.915487,-0.329934 -0.915487,-0.930266 0,-0.165101 0.04492,-0.390607 0.08998,-0.660737 l 0.780298,-4.007086 h 2.28132 v -0.645536 h -2.161356 l 0.315601,-1.710566 z m -121.17378,0.121721 c 0.463742,-0.03504 0.911838,-0.01068 1.250208,0.226908 0.643443,0.452147 0.796013,1.852587 0.943308,2.543459 0.601467,2.819911 0.619829,7.093233 -2.613857,8.328461 -1.116222,0.426284 -2.95975,0.268216 -4.156207,0.268216 -2.095898,0 -4.220885,0.177587 -6.311886,0.321678 -4.240316,0.292342 -8.60233,0.761804 -12.776766,1.59492 -2.911964,0.581146 -6.266104,1.24462 -8.018959,2.073529 l -1.720559,0.791585 c -0.949964,0.239394 -2.263001,-0.201603 -3.191576,-0.476852 -2.645662,-0.78464 -10.755606,-3.147485 -7.766833,-7.185197 1.762134,-2.38054 5.987227,-3.510226 8.690132,-4.337043 8.427371,-2.578358 17.182672,-2.912365 25.862189,-3.738425 2.820845,-0.268573 5.632899,-0.282127 8.467143,-0.282127 0.400778,0 0.879922,-0.0941 1.343663,-0.129112 z m 84.313162,1.28889 c -0.930511,0 -1.921027,0.465389 -2.686459,1.305849 -0.795435,0.870484 -1.245422,2.055814 -1.245422,3.391554 0,1.695943 0.900175,2.731662 2.220891,2.731662 0.885508,0 1.876357,-0.480279 2.806891,-1.455816 v -0.690315 c -0.810458,0.825458 -1.650941,1.245867 -2.341323,1.245867 -0.930511,0 -1.50102,-0.735631 -1.50102,-2.041369 0,-2.236227 1.035653,-3.751912 2.251318,-3.751912 h 0.0752 l 0.870284,1.140659 c 0.570308,-0.01491 0.945468,-0.360226 0.945468,-0.825504 0,-0.570308 -0.570374,-1.050675 -1.395833,-1.050675 z m 90.170363,0 c -0.93053,0 -1.92105,0.465389 -2.68648,1.305849 -0.79544,0.870484 -1.24542,2.055814 -1.24542,3.391554 0,1.695943 0.90015,2.731662 2.22091,2.731662 0.88548,0 1.87633,-0.480279 2.80687,-1.455816 v -0.690315 c -0.81046,0.825458 -1.65092,1.245867 -2.3413,1.245867 -0.93053,0 -1.50104,-0.735631 -1.50104,-2.041369 0,-2.236227 1.03565,-3.751912 2.25131,-3.751912 h 0.0752 l 0.87029,1.140659 c 0.5703,-0.01491 0.94546,-0.360226 0.94546,-0.825504 0,-0.570308 -0.57037,-1.050675 -1.39581,-1.050675 z m -104.053023,0.01469 -1.515798,0.495569 v 0.375138 l 1.155861,0.08998 c 0.255152,0.165101 0.374893,0.585465 0.449921,1.275847 l 0.375159,3.511962 c 0.01491,0.180102 0.03043,0.360249 0.03043,0.540351 0,0.360203 -0.06031,0.690315 -0.210394,0.975469 h 0.720296 c 2.791556,-3.151758 4.112295,-5.373252 4.112295,-6.408815 0,-0.540304 -0.284798,-0.855505 -0.795079,-0.855505 -0.255129,0 -0.510593,0.105275 -0.750721,0.300377 l 0.285154,1.830976 c -0.390206,1.035563 -1.15546,2.251338 -2.296097,3.707131 l -0.390362,-4.112271 c -0.120076,-1.200686 -0.285176,-1.726213 -1.14066,-1.726213 z m 34.744486,0.01513 c -1.020584,0 -1.936072,0.43541 -2.656479,1.245846 -0.750409,0.855483 -1.200642,2.071103 -1.200642,3.28679 0,1.74097 1.005406,2.851649 2.551271,2.851649 1.035564,0 1.936296,-0.405407 2.641679,-1.215866 0.780434,-0.900486 1.21542,-2.041123 1.21542,-3.226786 0,-1.816019 -0.990381,-2.941633 -2.551249,-2.941633 z m 21.311724,0 -2.356103,0.495124 v 0.390362 l 1.245869,0.225172 -0.87071,3.947105 c -0.07503,0.345202 -0.11998,0.645557 -0.11998,0.900709 0,0.885485 0.555301,1.410612 1.455815,1.410612 0.810455,0 1.710902,-0.405408 2.716456,-1.245867 -0.01489,0.105051 -0.01514,0.195102 -0.01514,0.285153 0,0.660381 0.285377,0.960714 0.900707,0.960714 0.465276,0 1.095504,-0.164967 1.920966,-0.465145 v -0.42036 c -0.360211,0.105074 -0.645184,0.16519 -0.840284,0.16519 -0.480284,0 -0.780727,-0.270376 -0.780727,-0.585532 0,-0.315177 0.07537,-0.645045 0.150415,-1.02025 l 1.065448,-4.893017 h -1.215863 l -1.125459,5.418143 c -0.840461,0.660359 -1.606046,0.945468 -2.131325,0.945468 -0.540312,0 -0.87029,-0.300199 -0.87029,-0.825503 0,-0.225127 0.06015,-0.600377 0.165195,-1.110658 L 83.301744,21.5316 Z m 36.125513,0 c -1.63591,0 -2.92684,1.275737 -2.92684,2.911631 0,0.795457 0.48009,1.455994 1.3806,1.816197 -0.40522,0.510281 -0.60033,0.960536 -0.60033,1.455815 0,0.09005 2.3e-4,0.164678 0.0151,0.254729 -1.35076,0.525282 -1.99616,1.126037 -1.99616,2.086572 0,1.200664 1.08048,1.99572 2.83644,1.99572 2.07116,0 3.61715,-1.12548 3.61715,-2.236115 0,-0.645357 -0.3902,-1.125591 -1.17063,-1.485795 l -2.38653,-1.080677 v -0.08999 c 0,-0.285154 0.0601,-0.540372 0.19519,-0.795501 0.1951,0.01491 0.31513,0.01513 0.34514,0.01513 1.54586,0 2.88165,-1.185952 2.88165,-2.836869 0,-0.315156 -0.0601,-0.645047 -0.19518,-0.990249 h 1.54623 v -0.645535 h -2.14656 c -0.46525,-0.240129 -0.91512,-0.375138 -1.39538,-0.375138 z m 17.81455,0 c -1.02059,0 -1.93607,0.43541 -2.65648,1.245846 -0.75041,0.855483 -1.20064,2.071103 -1.20064,3.28679 0,1.74097 1.00584,2.851649 2.55169,2.851649 1.03559,0 1.93588,-0.405407 2.64126,-1.215866 0.78043,-0.900486 1.21586,-2.041123 1.21586,-3.226786 0,-1.816019 -0.99083,-2.941633 -2.55169,-2.941633 z m -113.6282,0.01513 c -0.735408,0 -1.711078,0.435209 -2.47651,1.230644 -0.840461,0.885508 -1.33583,2.146064 -1.33583,3.406777 0,1.740969 0.855751,2.731662 2.266541,2.731662 0.990537,0 1.981119,-0.450544 2.91163,-1.351052 v -0.705095 c -0.870484,0.810458 -1.710922,1.230644 -2.401305,1.230644 -0.960513,0 -1.561001,-0.735697 -1.561001,-1.951363 0,-0.24015 0.01513,-0.480212 0.04521,-0.690315 2.671481,-0.180102 4.097071,-1.140371 4.097071,-2.416084 0,-0.900509 -0.600288,-1.485818 -1.5458,-1.485818 z m 11.766531,0 -2.221337,0.479923 v 0.390362 l 1.215865,0.225172 -0.885485,4.472653 c -0.06005,0.330179 -0.08998,0.600199 -0.08998,0.7803 0,0.660358 0.314888,0.990672 0.960245,0.990672 0.57033,0 1.290693,-0.180347 2.11613,-0.52555 v -0.465122 c -0.465255,0.150077 -0.825059,0.225172 -1.110212,0.225172 -0.465278,0 -0.720741,-0.195326 -0.720741,-0.585554 0,-0.09005 0.01513,-0.210037 0.04521,-0.375137 l 1.080677,-5.612891 z m 11.631321,0 c -0.735409,0 -1.710633,0.435209 -2.476066,1.230644 -0.840459,0.885508 -1.335828,2.146064 -1.335828,3.406777 0,1.740969 0.855305,2.731662 2.266094,2.731662 0.990561,0 1.98112,-0.450544 2.911631,-1.351052 v -0.705095 c -0.870462,0.810458 -1.7109,1.230644 -2.401282,1.230644 -0.960536,0 -1.561023,-0.735697 -1.561023,-1.951363 0,-0.24015 0.01513,-0.480212 0.04521,-0.690315 2.671503,-0.180102 4.097516,-1.140371 4.097516,-2.416084 0,-0.900509 -0.60071,-1.485818 -1.546244,-1.485818 z m 20.981794,0 -2.221342,0.495125 v 0.37516 l 1.231089,0.225172 -1.245869,6.138438 h 1.260649 l 0.615531,-3.527185 c 0.24013,-1.380766 0.720093,-2.190912 2.190916,-2.76122 l 0.390359,0.810281 h 0.105184 c 0.615355,0 1.005471,-0.40514 1.005471,-0.97547 0,-0.450255 -0.330424,-0.780301 -0.840705,-0.780301 -0.75041,0 -1.710716,0.690383 -2.671258,2.056147 l 0.480351,-2.056147 z m 23.44307,0 -2.221333,0.495125 v 0.37516 l 1.231088,0.225172 -1.245868,6.138438 h 1.260648 l 0.615532,-3.527185 c 0.240129,-1.380766 0.720076,-2.190912 2.190916,-2.76122 l 0.390359,0.810281 h 0.105184 c 0.615355,0 1.00547,-0.40514 1.00547,-0.97547 0,-0.450255 -0.330003,-0.780301 -0.840284,-0.780301 -0.750401,0 -1.711145,0.690383 -2.671678,2.056147 l 0.480351,-2.056147 z m 6.048461,0 -2.221342,0.495125 v 0.37516 l 1.230651,0.225172 -1.245423,6.138438 h 1.27542 l 0.930688,-5.072984 c 0.915512,-0.840461 1.711061,-1.230644 2.221342,-1.230644 0.570297,0 0.810277,0.285109 0.810277,0.945489 0,0.195103 -0.0301,0.525439 -0.13519,0.960692 l -0.645107,2.776443 c -0.07503,0.330178 -0.119963,0.615176 -0.119963,0.81028 0,0.600332 0.360042,0.900708 1.09545,0.900708 0.42023,0 1.02054,-0.150187 1.80097,-0.450342 v -0.419941 c -0.3452,0.09005 -0.6154,0.134764 -0.8255,0.134764 -0.49528,0 -0.7803,-0.254818 -0.7803,-0.735074 0,-0.225127 0.0751,-0.555462 0.1652,-0.990693 l 0.51034,-2.326523 c 0.12005,-0.540305 0.20995,-0.960201 0.20995,-1.335406 0,-0.735408 -0.48019,-1.200664 -1.26062,-1.200664 -0.795459,0 -1.725996,0.49508 -2.91166,1.440615 l 0.26995,-1.440615 z m 8.329773,0 -2.22134,0.479923 v 0.390362 l 1.21587,0.225172 -0.88549,4.472653 c -0.0601,0.330179 -0.0904,0.600199 -0.0904,0.7803 0,0.660358 0.31534,0.990672 0.96069,0.990672 0.57031,0 1.29067,-0.180347 2.11614,-0.52555 v -0.465122 c -0.46526,0.150077 -0.82551,0.225172 -1.11067,0.225172 -0.46525,0 -0.72029,-0.195326 -0.72029,-0.585554 0,-0.09005 0.0151,-0.210037 0.0452,-0.375137 l 1.08023,-5.612891 z m 4.32224,0 -2.22133,0.495125 v 0.37516 l 1.23108,0.225172 -1.24586,6.138438 h 1.27584 l 0.93027,-5.072984 c 0.91551,-0.840461 1.71103,-1.230644 2.22134,-1.230644 0.5703,0 0.81027,0.285109 0.81027,0.945489 0,0.195103 -0.0297,0.525439 -0.13476,0.960692 l -0.64553,2.776443 c -0.075,0.330178 -0.11997,0.615176 -0.11997,0.81028 0,0.600332 0.36005,0.900708 1.09546,0.900708 0.42023,0 1.02052,-0.150187 1.80097,-0.450342 v -0.419941 c -0.3452,0.09005 -0.61539,0.134764 -0.8255,0.134764 -0.49528,0 -0.7803,-0.254818 -0.7803,-0.735074 0,-0.225127 0.0751,-0.555462 0.16519,-0.990693 l 0.51035,-2.326523 c 0.12005,-0.540305 0.20994,-0.960201 0.20994,-1.335406 0,-0.735408 -0.48019,-1.200664 -1.26062,-1.200664 -0.79546,0 -1.72599,0.49508 -2.91165,1.440615 l 0.26995,-1.440615 z m 43.34419,0 c -0.73543,0 -1.71108,0.435209 -2.4765,1.230644 -0.84047,0.885508 -1.33541,2.146064 -1.33541,3.406777 0,1.740969 0.85532,2.731662 2.26611,2.731662 0.99054,0 1.98112,-0.450544 2.91163,-1.351052 v -0.705095 c -0.87048,0.810458 -1.71092,1.230644 -2.4013,1.230644 -0.96054,0 -1.561,-0.735697 -1.561,-1.951363 0,-0.24015 0.0151,-0.480212 0.0452,-0.690315 2.67149,-0.180102 4.09708,-1.140371 4.09708,-2.416084 0,-0.900509 -0.60029,-1.485818 -1.54581,-1.485818 z m 6.36361,0 c -0.73542,0 -1.71107,0.435209 -2.47651,1.230644 -0.84046,0.885508 -1.3354,2.146064 -1.3354,3.406777 0,1.740969 0.85532,2.731662 2.26612,2.731662 0.99054,0 1.98112,-0.450544 2.91163,-1.351052 v -0.705095 c -0.87049,0.810458 -1.71093,1.230644 -2.40131,1.230644 -0.96053,0 -1.561,-0.735697 -1.561,-1.951363 0,-0.24015 0.0151,-0.480212 0.0452,-0.690315 2.67148,-0.180102 4.09707,-1.140371 4.09707,-2.416084 0,-0.900509 -0.60029,-1.485818 -1.5458,-1.485818 z M 15.733692,21.861913 c 0.105052,0 0.225283,0.02978 0.360359,0.04478 l 0.720296,0.855483 -0.675092,3.81234 c -0.675382,0.855483 -1.366076,1.275869 -1.921383,1.275869 -0.780433,0 -1.290625,-0.660536 -1.290625,-1.846198 0,-2.50638 1.455682,-4.142275 2.806445,-4.142275 z M 119.17159,21.8766 c 0.64535,0 1.02067,0.480346 1.02067,1.365832 0,1.365764 -0.88551,2.416528 -1.74098,2.416528 -0.61535,0 -1.00547,-0.450187 -1.00547,-1.260645 0,-1.41079 0.85529,-2.521715 1.72578,-2.521715 z m -57.617219,0.03001 c 0.91551,0 1.471039,0.780701 1.471039,2.26654 0,2.281275 -1.125591,3.917103 -2.401305,3.917103 -0.900486,0 -1.455815,-0.780522 -1.455815,-2.221337 0,-2.326299 1.095367,-3.962306 2.386081,-3.962306 z m 75.252229,0 c 0.91551,0 1.4706,0.780701 1.4706,2.26654 0,2.281275 -1.12559,3.917103 -2.40131,3.917103 -0.90049,0 -1.45581,-0.780522 -1.45581,-2.221337 0,-2.326299 1.09581,-3.962306 2.38652,-3.962306 z M 23.057994,21.96704 c 0.435231,0 0.780278,0.345024 0.780278,0.81028 0,0.945534 -1.065587,1.845887 -2.941632,1.950938 0.435253,-1.816018 1.29087,-2.761218 2.161354,-2.761218 z m 23.397852,0 c 0.435254,0 0.780723,0.345024 0.780723,0.81028 0,0.945534 -1.065587,1.845887 -2.941633,1.950938 0.435253,-1.816018 1.290426,-2.761218 2.16091,-2.761218 z m 106.469524,0 c 0.43524,0 0.78073,0.345024 0.78073,0.81028 0,0.945534 -1.06603,1.845887 -2.94207,1.950938 0.43525,-1.816018 1.29086,-2.761218 2.16134,-2.761218 z m 6.36362,0 c 0.43523,0 0.78027,0.345024 0.78027,0.81028 0,0.945534 -1.06558,1.845887 -2.94163,1.950938 0.43526,-1.816018 1.29088,-2.761218 2.16136,-2.761218 z m -262.28691,3.265046 c 1.26212,0.07206 2.44538,0.321743 3.425454,0.755505 2.099125,0.929042 3.821999,2.733755 5.515494,4.233149 1.052523,0.931801 3.237092,1.841837 3.781915,3.176352 0.484575,1.187355 -0.06697,2.98628 0.143023,4.284006 0.413797,2.556968 2.838739,7.540749 -0.04999,9.258726 -0.691362,0.411194 -1.545265,0.159982 -2.30914,0.286045 -1.431955,-2.717374 -1.219069,-6.053997 -2.666894,-8.774909 -2.12303,-3.989393 -5.190282,-5.218167 -9.032692,-6.955242 -2.08944,-0.944576 -3.95275,-2.31871 -6.31144,-2.543013 -0.86592,-0.08235 -1.75479,0.193634 -2.61735,0.261695 1.83993,-2.815281 6.33523,-4.198562 10.12162,-3.982314 z m 220.60848,2.828167 1.90618,0.885486 c 0.57031,0.255151 0.8407,0.570485 0.8407,0.96069 0,0.675382 -0.7956,1.305427 -2.10134,1.305427 -1.20067,0 -2.02615,-0.70525 -2.02615,-1.665786 0,-0.765432 0.48012,-1.275691 1.38061,-1.485817 z M 2.3370306,30.138137 c 0.3931881,0.782793 0.1538834,1.906582 0.1538834,2.77079 0,2.642101 -0.5277972,5.400961 -0.9615817,8.005047 -1.85423355,11.129498 -6.4792789,22.246045 -13.7170243,30.956031 -6.062077,7.295608 -13.62555,13.018246 -23.03707,15.07028 -3.909825,0.852498 -8.089913,0.902869 -12.072984,0.902869 -5.836081,0 -11.749794,-0.938771 -16.868206,-3.927961 -3.905195,-2.280815 -7.071844,-5.879682 -9.947285,-9.281793 -4.851019,-5.739395 -8.411946,-11.369997 -10.847148,-18.479192 -1.42933,-4.172899 -2.263157,-8.654122 -3.335021,-12.931093 -0.745535,-2.973995 -2.007227,-6.452127 -1.271084,-9.544326 1.217534,0.446582 2.214348,1.389957 3.386768,1.961377 2.500037,1.218448 5.175523,2.075979 7.851164,2.80905 3.881047,1.063272 8.028418,1.554746 12.007349,2.031352 2.728592,0.326952 5.410443,0.914554 8.158932,1.177183 6.495549,0.620697 13.193234,0.458957 19.70463,0.173871 5.995573,-0.262631 12.061789,-0.745202 18.011046,-1.599261 1.848848,-0.265545 3.714566,-0.571932 5.542025,-0.9594 0.971196,-0.205987 2.106069,-0.627752 3.078979,-0.36036 0.814798,-1.071441 4.0807785,-1.374155 5.3877185,-1.807494 3.7357322,-1.238478 7.28951511,-3.214034 8.7749091,-6.96697 z M -110.96428,30.18813 c 1.39378,-0.110215 2.67776,0.413353 4.00274,0.71985 -0.40026,1.400108 -1.25201,2.672371 -1.37148,4.156208 -0.72074,8.959996 5.72587,15.021739 13.532717,17.848882 1.560178,0.564967 3.556164,1.353857 5.233813,1.323678 0.797104,-0.01424 2.515772,-0.674047 3.147241,-0.144335 0.804649,0.675181 1.064407,2.769098 1.393229,3.755407 0.90042,2.701356 2.089154,5.282513 3.310695,7.850724 -2.673817,-1.826524 -5.094731,-3.713876 -8.158932,-4.89954 -2.900747,-1.122546 -5.998555,-1.655373 -8.928347,-2.659065 -5.017586,-1.719068 -10.027766,-5.147056 -13.079326,-9.528679 -2.47092,-3.54804 -4.34986,-8.238165 -4.15621,-12.623327 0.12304,-2.784344 2.20438,-5.572895 5.07386,-5.799803 z m 5.08253,1.281055 c 0.8259,-0.06403 1.84351,0.713641 2.61475,0.977651 3.68167,1.260311 7.037078,3.780357 8.191959,7.697704 0.578187,1.96091 0.661027,5.971113 2.292625,7.339971 1.212172,1.016934 2.39888,-0.05882 3.52327,-0.362541 0.402692,-0.108835 0.831201,0.213754 1.232379,0.257779 1.040037,1.703644 1.291427,4.053246 1.539279,6.003674 -1.531399,-0.332828 -3.300413,0.213398 -4.926047,-0.03305 -4.965975,-0.752924 -11.330765,-4.058032 -13.939175,-8.433647 -1.65842,-2.781873 -2.79355,-6.922478 -2.28784,-10.160304 0.15011,-0.961069 0.48202,-3.18855 1.7588,-3.287237 z m 62.742793,0.947226 c 5.986202,-0.01513 11.96762,0.394034 17.76631,1.325836 2.755833,0.442754 5.315985,1.184216 8.005025,1.856615 0.930734,0.232761 2.465761,0.188715 3.078579,1.004604 l -3.386345,0.923745 c -1.363272,-0.540017 -4.225025,0.719428 -5.695908,0.961559 -4.496914,0.740304 -9.01506,1.023589 -13.547051,1.334093 -12.563968,0.86038 -24.809799,-0.775359 -37.099698,-3.065091 0.684708,-1.331267 2.207516,-1.243886 3.540652,-1.508831 3.204886,-0.637011 6.311352,-1.188445 9.544326,-1.613616 5.816985,-0.764853 11.807906,-1.203846 17.79411,-1.218914 z m -46.119321,0.03087 c 1.669947,0.851144 3.169853,1.984035 4.926046,2.701238 2.56467,1.047269 5.453398,1.919067 8.158931,2.459105 0.67073,0.133763 1.330888,-0.09337 1.995275,0.02348 0.360449,0.06337 0.715399,0.174716 1.071998,0.263855 0.0085,-0.0022 -0.0031,-0.0087 0.01135,-0.0087 l 0.01469,0.01469 c 1.25468,0.315177 2.502217,0.706697 3.834084,0.882436 1.905158,0.25139 4.419661,1.442528 6.311441,0.898973 l -0.615533,-0.153884 v -0.153883 c 2.00785,0.08758 3.999052,0.762807 6.003675,0.909835 8.298236,0.608188 16.938781,0.568794 25.246232,0 4.504303,-0.308501 9.086615,-0.879254 13.54705,-1.56799 2.256347,-0.348207 4.662348,-1.142373 6.92742,-1.189335 -0.270643,0.925348 -2.670434,1.050142 -3.540652,1.19194 -3.592843,0.584819 -7.169261,0.998839 -10.77626,1.464963 -15.741012,2.034491 -31.374612,1.301241 -46.952236,-1.54146 -4.33268,-0.79065 -8.563937,-1.734203 -12.622882,-3.488059 -0.975559,-0.421498 -3.656409,-1.491181 -3.540652,-2.707313 z m 16.178312,5.453776 c -0.0087,-0.0022 -0.01736,-0.004 -0.02606,-0.006 -0.06232,0.01402 -0.0042,0.06524 0.06259,0.04304 z m 72.37407315,-5.061256 c 0.0191457,0.790494 -1.55944235,1.76839 -2.19133465,2.103977 -1.9635586,1.043108 -4.0290311,1.676714 -6.1575576,2.25263 -0.8511656,0.230291 -1.7366739,0.672956 -2.6169289,0.484686 V 37.52721 c 0,0 3.7864108,-1.062961 5.6537537,-1.677514 0.5762721,-0.189651 1.169571,-0.34705 1.711412,-0.619896 1.2852395,-0.647138 2.6730609,-0.724547 3.59760694,-2.385637 z m -37.59787015,2.224386 -13.546628,0.769862 c 0.581725,0.89717 2.320046,0.384174 3.23244,0.321677 2.517418,-0.172268 5.032434,0.04783 7.543398,-0.278209 0.917624,-0.119319 2.097456,-0.115046 2.77079,-0.81333 z m 87.416089,1.220622 -2.356103,0.495147 v 0.375583 l 1.410612,0.119964 -2.056147,10.055541 h 1.27587 l 0.930689,-5.087763 c 0.93051,-0.840461 1.725611,-1.230644 2.220891,-1.230644 0.57033,0 0.810726,0.314911 0.810726,0.960268 0,0.195103 -0.04534,0.525438 -0.150412,0.960692 l -0.64509,2.776443 c -0.07505,0.330178 -0.105208,0.600398 -0.105208,0.7955 0,0.630357 0.345469,0.915488 1.095879,0.915488 0.390228,0 1.005539,-0.149965 1.800973,-0.465121 v -0.405163 c -0.34518,0.09005 -0.630578,0.134765 -0.840705,0.134765 -0.49528,0 -0.765521,-0.270019 -0.765521,-0.750298 0,-0.255129 0.06036,-0.57024 0.150411,-0.975469 l 0.525126,-2.326523 c 0.120075,-0.540306 0.20997,-0.975403 0.20997,-1.35063 0,-0.735408 -0.480212,-1.200641 -1.260645,-1.200641 -0.780434,0 -1.71099,0.480301 -2.881651,1.425813 L 48.97756,38.94129 c 0.210126,-1.050586 0.405207,-1.936071 0.600332,-2.656479 z m -34.699261,0.480368 c -0.450255,0 -0.810303,0.360025 -0.810303,0.810281 0,0.465255 0.360048,0.810724 0.810303,0.810724 0.43523,0 0.810702,-0.36047 0.810702,-0.810724 0,-0.435255 -0.375472,-0.810281 -0.810702,-0.810281 z m 12.141668,1.876157 -0.750298,1.500596 -1.095456,0.480346 v 0.450365 l 0.930266,-0.0752 -0.81028,4.067513 c -0.09005,0.420231 -0.119986,0.765322 -0.119986,1.005451 0,0.915509 0.405163,1.365853 1.260646,1.365853 0.525304,0 1.30576,-0.225506 2.311321,-0.660759 v -0.479901 c -0.600355,0.195103 -1.080633,0.299933 -1.425836,0.299933 -0.600331,0 -0.915487,-0.329935 -0.915487,-0.930266 0,-0.165079 0.04496,-0.390585 0.08998,-0.660737 l 0.7803,-4.007087 h 2.281319 v -0.645535 h -2.16091 l 0.315156,-1.710567 z m 16.704307,0 -0.750299,1.500596 -1.095433,0.480346 v 0.450365 l 0.930266,-0.0752 -0.810302,4.067513 c -0.09005,0.420231 -0.119964,0.765322 -0.119964,1.005451 0,0.915509 0.405162,1.365853 1.260623,1.365853 0.525304,0 1.30576,-0.225506 2.311321,-0.660759 v -0.479901 c -0.600332,0.195103 -1.080633,0.299933 -1.425835,0.299933 -0.600309,0 -0.915465,-0.329935 -0.915465,-0.930266 0,-0.165079 0.04494,-0.390585 0.08998,-0.660737 l 0.780278,-4.007087 h 2.281318 v -0.645535 h -2.16091 l 0.315156,-1.710567 z M 33.2335,40.08195 c -1.020562,0 -1.936072,0.435409 -2.656457,1.245867 -0.750432,0.855461 -1.200663,2.071104 -1.200663,3.286768 0,1.74097 1.00585,2.851649 2.551716,2.851649 1.035563,0 1.935849,-0.405407 2.641256,-1.215865 0.780433,-0.900487 1.215865,-2.041124 1.215865,-3.226786 0,-1.81602 -0.99085,-2.941633 -2.551717,-2.941633 z m 31.33771,0 c -1.020563,0 -1.936073,0.435409 -2.65648,1.245867 -0.750409,0.855461 -1.200641,2.071104 -1.200641,3.286768 0,1.74097 1.005406,2.851649 2.551272,2.851649 1.035584,0 1.936294,-0.405407 2.64168,-1.215865 0.780433,-0.900487 1.215443,-2.041124 1.215443,-3.226786 0,-1.81602 -0.990404,-2.941633 -2.551274,-2.941633 z m -50.4581,0.01513 -2.221337,0.479901 v 0.390362 l 1.215442,0.225172 -0.885485,4.472653 c -0.06005,0.330179 -0.08998,0.600199 -0.08998,0.7803 0,0.660358 0.315333,0.990693 0.960691,0.990693 0.570307,0 1.29067,-0.180369 2.116128,-0.525571 v -0.465122 c -0.465255,0.150077 -0.825503,0.225171 -1.110679,0.225171 -0.465255,0 -0.720296,-0.195325 -0.720296,-0.58553 0,-0.09007 0.01469,-0.21006 0.04478,-0.37516 l 1.080678,-5.612869 z m 4.322243,0 -2.221315,0.495124 v 0.375139 l 1.230643,0.225172 -1.245422,6.138438 h 1.275402 l 0.930711,-5.072985 c 0.91551,-0.84046 1.711034,-1.230643 2.221315,-1.230643 0.570329,0 0.810302,0.285109 0.810302,0.945489 0,0.195103 -0.03013,0.525439 -0.135209,0.960692 l -0.645091,2.776443 c -0.07505,0.330178 -0.119986,0.615621 -0.119986,0.810724 0,0.600333 0.360048,0.900264 1.095456,0.900264 0.42023,0 1.020539,-0.150188 1.800973,-0.450343 v -0.41994 c -0.345202,0.09005 -0.615378,0.134764 -0.825504,0.134764 -0.495257,0 -0.780277,-0.254818 -0.780277,-0.735074 0,-0.225128 0.07514,-0.55544 0.16519,-0.990693 l 0.509902,-2.326523 c 0.120053,-0.540305 0.210394,-0.960201 0.210394,-1.335406 0,-0.735408 -0.480213,-1.200642 -1.260647,-1.200642 -0.795434,0 -1.725968,0.49508 -2.91163,1.440592 l 0.269952,-1.440592 z m 39.712263,0 c -0.73543,0 -1.711078,0.435187 -2.47651,1.230644 -0.84046,0.885486 -1.335829,2.146042 -1.335829,3.406755 0,1.740969 0.85575,2.731662 2.26654,2.731662 0.990538,0 1.98112,-0.450544 2.911631,-1.351052 v -0.705095 c -0.870485,0.810458 -1.710922,1.230644 -2.401305,1.230644 -0.960536,0 -1.561024,-0.735698 -1.561024,-1.951363 0,-0.24015 0.01513,-0.480189 0.04522,-0.690315 2.67148,-0.180102 4.097071,-1.140371 4.097071,-2.416084 0,-0.900509 -0.600288,-1.485796 -1.5458,-1.485796 z m 12.426819,0 -2.221308,0.495124 v 0.375139 l 1.230643,0.225172 -1.245423,6.138438 h 1.260624 l 0.615557,-3.527164 c 0.240129,-1.380787 0.720068,-2.190911 2.19089,-2.761241 l 0.390359,0.81028 h 0.105209 c 0.61533,0 1.005471,-0.40514 1.005471,-0.975469 0,-0.450255 -0.330449,-0.780279 -0.84073,-0.780279 -0.75041,0 -1.710725,0.690383 -2.671233,2.056125 l 0.480343,-2.056125 z m 7.444291,0 c -0.735403,0 -1.711078,0.435187 -2.476487,1.230644 -0.84046,0.885486 -1.335852,2.146042 -1.335852,3.406755 0,1.740969 0.855753,2.731662 2.26654,2.731662 0.990539,0 1.98112,-0.450544 2.911631,-1.351052 v -0.705095 c -0.870483,0.810458 -1.710901,1.230644 -2.401283,1.230644 -0.960534,0 -1.561025,-0.735698 -1.561025,-1.951363 0,-0.24015 0.01472,-0.480189 0.04475,-0.690315 2.671477,-0.180102 4.097489,-1.140371 4.097489,-2.416084 0,-0.900509 -0.600264,-1.485796 -1.545799,-1.485796 z m 4.952577,0 -2.221333,0.479901 v 0.390362 l 1.231063,0.23995 -1.245843,6.12366 h 1.26064 l 0.945468,-5.087763 c 0.945535,-0.855461 1.741126,-1.230644 2.131359,-1.230644 0.525279,0 0.825503,0.330201 0.825503,0.885508 0,0.210103 -0.04517,0.555195 -0.135214,1.035452 l -0.900262,4.397447 h 1.245423 l 0.975465,-5.102965 c 0.69039,-0.810458 1.471067,-1.215442 2.041376,-1.215442 0.495273,0 0.735512,0.329912 0.735512,0.960268 0,0.210104 -0.03012,0.525439 -0.135181,0.960692 l -0.645537,2.776443 c -0.07504,0.34518 -0.119989,0.630623 -0.119989,0.810724 0,0.615334 0.345027,0.900264 1.095462,0.900264 0.405223,0 1.005512,-0.164967 1.800969,-0.465121 v -0.405162 c -0.345204,0.09005 -0.630152,0.134764 -0.840284,0.134764 -0.480259,0 -0.765518,-0.270019 -0.765518,-0.750298 0,-0.240128 0.07512,-0.57024 0.165186,-0.975469 l 0.510348,-2.326523 c 0.120057,-0.510281 0.179967,-0.930466 0.179967,-1.260645 0,-0.795435 -0.51023,-1.275403 -1.230643,-1.275403 -0.720404,0 -1.650848,0.449877 -2.746436,1.365387 -0.01514,-0.885486 -0.465462,-1.365387 -1.215864,-1.365387 -0.705405,0 -1.665787,0.464855 -2.836453,1.425391 l 0.269958,-1.425391 z m 12.997174,0 c -1.440817,0 -2.581274,1.035407 -2.581274,2.266096 0,0.84046 0.57035,1.2456 1.425818,1.890957 0.630354,0.480257 1.035468,0.825504 1.035468,1.395834 0,0.795434 -0.510365,1.275846 -1.365824,1.275846 -0.46526,0 -0.840108,-0.180368 -1.080237,-0.525548 l 0.269933,-0.750298 c -0.240129,-0.180102 -0.435414,-0.269952 -0.645512,-0.269952 -0.465285,0 -0.780306,0.29982 -0.780306,0.765076 0,0.780433 0.735453,1.32105 1.996144,1.32105 1.635917,0 2.746461,-1.005583 2.746461,-2.311298 0,-0.90051 -0.615304,-1.291005 -1.515818,-1.981387 -0.705381,-0.540283 -1.125434,-0.855528 -1.125434,-1.395833 0,-0.585331 0.450345,-1.00545 1.050676,-1.00545 0.165103,0 0.315047,0.04489 0.465126,0.149966 l 0.630328,0.870707 c 0.55531,-0.03002 0.870264,-0.345269 0.870264,-0.765521 0,-0.525282 -0.540353,-0.930245 -1.395813,-0.930245 z m -156.593777,0.04736 -0.153884,0.153905 z m 93.66363,0.522967 c 0.91551,0 1.471017,0.780256 1.471017,2.266095 0,2.281275 -1.125569,3.917102 -2.401283,3.917102 -0.900509,0 -1.455815,-0.780522 -1.455815,-2.221336 0,-2.326278 1.095344,-3.961861 2.386081,-3.961861 z m 31.337687,0 c 0.915533,0 1.471038,0.780256 1.471038,2.266095 0,2.281275 -1.126013,3.917102 -2.401726,3.917102 -0.900509,0 -1.455816,-0.780522 -1.455816,-2.221336 0,-2.326278 1.09579,-3.961861 2.386504,-3.961861 z m -6.543578,0.05999 c 0.435253,0 0.780299,0.345024 0.780299,0.81028 0,0.945535 -1.065587,1.845888 -2.941632,1.950939 0.435253,-1.815996 1.29087,-2.761219 2.161333,-2.761219 z m 19.871131,0 c 0.435229,0 0.780298,0.345024 0.780298,0.81028 0,0.945535 -1.065583,1.845888 -2.941629,1.950939 0.435229,-1.815996 1.290848,-2.761219 2.161331,-2.761219 z m 21.612104,4.892572 c -0.495282,0 -0.88549,0.40543 -0.88549,0.900709 0,0.49528 0.405232,0.885486 0.88549,0.885486 0.495282,0 0.900266,-0.390206 0.900266,-0.885486 0,-0.495279 -0.404984,-0.900709 -0.900266,-0.900709 z m -187.958419,0.373848 0.462095,0.923744 -0.615978,-0.153883 z m 0,1.847489 -0.153883,0.153884 z m 232.082465,9.340009 -1.458,2.374775 0.62469,0.305607 1.70838,-2.208294 z m 2.16612,0 -1.44406,2.374775 0.62508,0.305607 1.70795,-2.208294 z M -2.1273657,57.385631 c 9.1267447,1.178585 18.0057047,8.516484 23.2218007,15.702332 3.19625,4.40319 4.1875,10.884229 0.519028,15.367585 -4.304214,5.2605 -10.283874,8.550713 -16.1978757,11.692192 -2.6427247,1.40378 -5.04560962,3.09105 -7.8507416,4.20141 -11.5638827,4.57746 -23.7199297,5.92226 -36.0224927,6.46011 -4.403791,0.1926 -8.82906,0.30212 -13.238861,0.30212 -1.539723,0 -3.969272,0.44187 -5.388141,-0.15388 l 1.231512,-0.15389 v -0.15388 c -5.515428,0 -11.058098,-1.11313 -16.471746,-2.09005 -10.229567,-1.84562 -20.602268,-4.05228 -29.864487,-8.94488 -5.31913,-2.809737 -10.19218,-6.514688 -13.3432,-11.748698 -5.23787,-8.700018 1.15174,-18.887766 8.41671,-24.203373 1.50801,-1.10331 3.16102,-2.099342 4.7726,-3.045946 0.68968,-0.405013 1.49588,-1.073336 2.30914,-1.173714 0.838528,-0.10345 1.830557,0.308078 2.61691,0.55947 v 0.308207 c -5.53543,3.496628 -12.31763,6.461633 -15.78621,12.31512 -3.34749,5.648882 -1.6811,12.287521 2.27782,17.087723 5.04559,6.117961 13.20127,9.716702 20.589693,12.147761 8.296835,2.72984 17.0865,3.93874 25.708306,4.98386 6.943866,0.84161 13.920696,2.28071 20.936141,2.10875 6.522635,-0.15978 12.945049,-1.24047 19.396419,-2.10963 2.264492,-0.30496 4.515409,-0.16225 6.773536,-0.37731 4.837932,-0.46058 9.6105847,-1.68426 14.1626282,-3.3533 6.6026932,-2.42071 13.1520366,-6.31113 18.0170988,-11.3992 2.427858,-2.539097 4.802455,-5.68592 5.44118,-9.236115 0.198463,-1.102999 -0.02971,-2.136364 -0.05086,-3.232886 -0.0344,-1.783724 0.355441,-3.041252 -0.418628,-4.772166 C 15.836493,65.990853 5.4953306,61.709184 -2.4351568,58.309376 Z m 115.9607957,0.392965 -2.11089,0.416447 v 0.361249 l 1.23585,0.138661 -1.33323,6.804404 c -0.16664,0.860985 -0.24996,1.402668 -0.24996,1.597078 0,0.694344 0.33326,1.027645 1.01372,1.027645 0.43049,0 1.0555,-0.138815 1.84705,-0.472091 v -0.430358 c -0.41661,0.138857 -0.74983,0.222144 -0.98591,0.222144 -0.49993,0 -0.76376,-0.22243 -0.76376,-0.652923 0,-0.19441 0.0415,-0.569081 0.15256,-1.124568 l 1.40281,-6.985242 c 0.0138,-0.08333 0.0693,-0.388626 0.16648,-0.902446 z m 24.42638,0 -2.12438,0.402537 v 0.38907 l 1.22194,0.13866 -0.486,2.77731 c -0.37494,-0.166634 -0.73615,-0.236033 -1.1111,-0.236033 -1.15259,0 -2.37433,0.694504 -3.12421,1.874869 -0.44438,0.708206 -0.68075,1.569142 -0.68075,2.513457 0,1.583081 0.7083,2.485614 1.81923,2.485614 0.73601,0 1.4861,-0.430535 2.16656,-1.291496 -0.0138,0.09719 -0.0138,0.19446 -0.0138,0.277764 0,0.680456 0.29148,0.985905 0.93027,0.985905 0.36105,0 0.94416,-0.124793 1.70794,-0.402532 v -0.416874 c -0.4166,0.0972 -0.72192,0.153023 -0.90245,0.153023 -0.4166,0 -0.61119,-0.194553 -0.61119,-0.583373 0,-0.18053 0.0279,-0.444339 0.0834,-0.749854 l 1.48581,-8.318047 z m -48.200684,0.902446 v 0.52773 l 0.888956,0.06955 0.152594,0.208212 -1.485813,7.707277 -0.222144,0.194326 -0.888964,0.08345 v 0.527736 h 3.29113 v -0.527736 l -0.888535,-0.08345 -0.09737,-0.194326 0.527727,-2.722092 c 0.37494,0.0138 0.652839,0.02784 0.861138,0.02784 2.6107,0 4.235311,-1.513328 4.235311,-3.624111 0,-0.888763 -0.527795,-1.652813 -1.333228,-1.944444 -0.652679,-0.236056 -1.332781,-0.249944 -2.082653,-0.249944 z m 29.717574,0 v 0.52773 l 0.88896,0.06955 0.15257,0.208212 -1.4858,7.707277 -0.23605,0.194326 -0.87505,0.08345 v 0.527736 h 6.72137 l 0.44427,-2.263495 h -0.6386 l -0.47251,1.402333 -0.24994,0.222144 h -3.5411 l 0.74985,-3.874503 h 2.12483 l 0.16651,0.194746 -0.0553,0.999826 h 0.56903 l 0.58336,-3.055098 h -0.59726 l -0.30516,1.013722 -0.24997,0.194326 h -2.11092 l 0.68032,-3.513276 h 2.98552 l 0.15302,0.208212 v 1.180233 h 0.66641 l 0.38905,-2.027459 z m -26.870706,0.597283 c 1.527528,0 2.235667,0.555528 2.235667,1.819221 0,1.721938 -1.124946,2.74949 -3.110743,2.74949 -0.180522,0 -0.374604,-0.0138 -0.569014,-0.02784 l 0.874622,-4.513073 c 0.194418,-0.0138 0.388921,-0.02782 0.569468,-0.02782 z m -188.432692,0.857662 c 1.638032,0.103678 3.984697,1.347671 5.190791,1.976157 4.349485,2.266498 8.128885,4.864798 11.305304,8.666673 0.891206,1.066524 2.327791,2.50698 2.703418,3.848417 -2.026033,0.617004 -3.74263,1.996456 -5.542024,3.05726 -1.961067,1.156105 -3.977218,2.309946 -5.470291,4.067963 -2.149626,2.531081 -1.621562,7.241973 0.149544,9.808174 3.455207,5.006641 9.121446,7.692856 14.557307,10.025989 3.727252,1.59977 7.657664,2.82641 11.699582,3.32287 1.672552,0.20543 3.399499,0.0643 5.07993,0.2243 12.365215,1.17674 25.473785,0.58827 37.254004,-3.75583 5.478949,-2.020467 9.938003,-5.109995 13.6174924,-9.66344 3.0494445,-3.773879 3.7974275,-8.104052 0.5229451,-12.006904 -0.8379007,-0.998775 -1.8170205,-1.95829 -2.9029283,-2.682118 -1.4288619,-0.95213 -2.8354232,-2.109816 -4.4639732,-2.706025 0.427953,-1.462764 2.0938725,-2.939257 3.0207554,-4.156634 1.4859954,-1.95167 2.5899755,-4.175325 3.7740808,-6.311437 0.4735346,-0.854214 1.0439091,-3.242282 2.0000818,-3.595872 0.8622056,-0.318958 2.44644229,0.479122 3.21245315,0.847669 2.28848575,1.101292 4.58616335,1.924727 6.77353605,3.262025 6.7715328,4.139936 15.5444838,11.367306 11.8391108,20.422319 -0.662851,1.619782 -1.655971,3.206935 -2.741656,4.573945 -6.3277332,7.967525 -17.1249814,13.324542 -26.95504,15.405842 -4.394911,0.93058 -8.798435,0.9929 -13.238861,1.44409 -5.723106,0.58144 -11.325112,1.71688 -17.087301,1.96919 -7.409367,0.32434 -14.703824,-0.6937 -22.01377,-1.77576 -7.276338,-1.07698 -14.810344,-1.39532 -21.706003,-4.26139 -7.176896,-2.982917 -14.22201,-5.412978 -20.47405,-10.222888 -3.48554,-2.681672 -6.75619,-6.617895 -7.34473,-11.135773 -1.03372,-7.936166 5.22415,-13.725621 11.34703,-17.519823 1.25326,-0.776622 2.588088,-1.388865 3.846264,-2.163955 0.445624,-0.274467 0.868525,-0.837609 1.394074,-0.934608 0.19971,-0.03684 0.418917,-0.04526 0.652924,-0.03045 z m 238.841668,0.530781 c -0.54622,0 -1.04653,0.125195 -1.50018,0.375141 -0.45361,0.249963 -0.84226,0.583213 -1.16629,0.999818 -0.32404,0.416596 -0.57863,0.902533 -0.76377,1.457994 -0.17592,0.5462 -0.26387,1.120513 -0.26387,1.7223 0,0.490647 0.0647,0.920762 0.19432,1.291067 0.12961,0.361051 0.30554,0.666811 0.52773,0.916782 0.23145,0.240701 0.50465,0.425951 0.81941,0.555546 0.31477,0.120342 0.66198,0.180395 1.04155,0.180395 0.5462,0 1.04609,-0.12517 1.49972,-0.375141 0.45364,-0.249963 0.84229,-0.583213 1.1663,-0.999818 0.32404,-0.416605 0.57396,-0.897864 0.74986,-1.444089 0.18515,-0.555462 0.27779,-1.133998 0.27779,-1.735759 0,-0.481394 -0.0647,-0.907277 -0.19433,-1.277582 -0.1296,-0.37033 -0.31019,-0.675669 -0.54164,-0.916354 -0.22219,-0.249971 -0.49539,-0.435212 -0.81941,-0.555554 -0.31477,-0.129621 -0.65688,-0.194746 -1.02719,-0.194746 z m -37.50831,0.625104 -2.18003,0.458177 v 0.361228 l 1.15239,0.208231 -0.80552,3.652359 c -0.0694,0.319387 -0.11083,0.596816 -0.11083,0.832898 0,0.819313 0.51393,1.305401 1.34713,1.305401 0.74988,0 1.58306,-0.374738 2.51346,-1.152386 -0.0138,0.09722 -0.0138,0.180522 -0.0138,0.263851 0,0.611015 0.26396,0.888535 0.83331,0.888535 0.43049,0 1.01376,-0.152636 1.77752,-0.430358 v -0.389047 c -0.33328,0.09722 -0.59717,0.153014 -0.7777,0.153014 -0.44437,0 -0.72203,-0.250005 -0.72203,-0.541641 0,-0.29161 0.0692,-0.597017 0.13866,-0.944172 l 0.98591,-4.527426 h -1.12457 l -1.04155,5.013422 c -0.77765,0.611014 -1.48621,0.874621 -1.97224,0.874621 -0.49993,0 -0.80507,-0.277714 -0.80507,-0.763759 0,-0.208299 0.0554,-0.555487 0.15257,-1.027637 l 0.87462,-4.04101 z m -5.72113,0.0138 c -1.374772,0 -2.499895,0.652746 -3.20811,1.819231 -0.472149,0.777648 -0.722028,1.638693 -0.722028,2.569095 0,1.527553 0.736228,2.429976 1.916592,2.429976 0.666551,0 1.333186,-0.388651 2.069196,-1.166299 v 0.110836 c 0,0.708207 0.26356,1.055463 0.8468,1.055463 0.37496,0 0.94417,-0.166616 1.70794,-0.486004 v -0.416444 c -0.37494,0.08328 -0.62451,0.13868 -0.77725,0.13868 -0.51382,0 -0.7503,-0.194191 -0.7503,-0.638572 0,-0.19441 0.0419,-0.514176 0.13911,-0.972437 l 0.49991,-2.45782 c 0.20829,-1.027611 0.38887,-1.694094 0.52772,-1.985705 h -0.72202 l -0.27779,0.305591 c -0.4305,-0.208306 -0.86094,-0.305591 -1.24977,-0.305591 z m 28.5091,0 -2.05483,0.458185 v 0.347315 l 1.13848,0.208231 -1.15239,5.679821 h 1.1663 l 0.56946,-3.263758 c 0.22219,-1.277582 0.66654,-2.027462 2.02746,-2.555164 l 0.3608,0.750292 h 0.0974 c 0.56935,0 0.93027,-0.375175 0.93027,-0.902886 0,-0.416604 -0.30554,-0.722036 -0.7777,-0.722036 -0.69434,0 -1.58296,0.638598 -2.47172,1.902241 l 0.44427,-1.902241 z m 21.19131,0 c -1.33313,0 -2.38868,0.958287 -2.38868,2.096996 0,0.777648 0.52778,1.152562 1.31932,1.749689 0.58323,0.444381 0.95808,0.763785 0.95808,1.291495 0,0.735984 -0.47215,1.180205 -1.26367,1.180205 -0.43049,0 -0.77763,-0.166591 -0.99981,-0.485995 l 0.24993,-0.69421 c -0.22218,-0.166658 -0.40242,-0.249946 -0.59683,-0.249946 -0.43049,0 -0.72205,0.27763 -0.72205,0.708123 0,0.72212 0.68012,1.221945 1.84662,1.221945 1.51364,0 2.54127,-0.930158 2.54127,-2.138298 0,-0.83321 -0.56914,-1.194346 -1.40235,-1.833137 -0.65268,-0.499934 -1.04155,-0.791586 -1.04155,-1.291495 0,-0.541574 0.41654,-0.930267 0.972,-0.930267 0.15277,0 0.2915,0.04147 0.43036,0.138663 l 0.58337,0.805517 c 0.51382,-0.02776 0.80549,-0.31932 0.80549,-0.708148 0,-0.486037 -0.49995,-0.861137 -1.2915,-0.861137 z m -6.61008,0.319496 c 0.54621,0 0.95814,0.157313 1.23585,0.472091 0.28701,0.305515 0.43036,0.708122 0.43036,1.208031 0,0.185174 -0.0228,0.393682 -0.0691,0.625105 l -0.20822,1.041549 c -0.14812,0.731357 -0.42597,1.286642 -0.83331,1.666234 -0.40734,0.379567 -0.87044,0.569434 -1.38889,0.569434 -0.54621,0 -0.96276,-0.152661 -1.24976,-0.458151 -0.27774,-0.314778 -0.41645,-0.722483 -0.41645,-1.222391 0,-0.185174 0.0233,-0.393228 0.0696,-0.624676 l 0.20822,-1.04155 c 0.14813,-0.731356 0.42554,-1.28707 0.83288,-1.666637 0.40735,-0.379567 0.87045,-0.569039 1.38889,-0.569039 z m -7.49861,0.166508 c 0.0972,0 0.20801,0.02784 0.33298,0.04172 l 0.66681,0.791579 -0.62508,3.527188 c -0.6249,0.791545 -1.26372,1.180213 -1.77751,1.180213 -0.72212,0 -1.19412,-0.610905 -1.19412,-1.70794 0,-2.31909 1.34711,-3.832772 2.59692,-3.832772 z m -35.54999,0.0556 h 0.19431 l 0.55555,0.846803 -0.72247,3.666273 c -0.569379,0.611014 -1.110709,0.916353 -1.638394,0.916353 -0.805425,0 -1.208032,-0.555285 -1.208032,-1.666208 0,-2.207984 1.194295,-3.763221 2.819036,-3.763221 z m -22.885341,2.346959 -0.180833,0.930267 h 3.110718 l 0.180412,-0.930267 z m -153.41522,10.586747 c 3.641787,3.454138 6.85938,6.929643 11.237488,9.556494 9.270367,5.562062 21.504891,6.210728 31.712001,3.032908 3.793578,-1.181164 7.486176,-2.999302 10.930144,-4.958206 1.350385,-0.768168 2.575019,-1.868652 4.002324,-2.551269 0.321165,-0.153595 0.707186,-0.524035 1.012415,-0.340796 1.481278,0.889242 1.520583,3.602165 0.849831,5.112961 -1.81524,4.088522 -5.673763,6.327815 -9.559105,8.111539 -11.874587,5.451713 -26.592521,4.528815 -38.639398,0.187807 -4.519393,-1.628548 -10.3934,-5.169381 -9.742545,-10.762373 0.148897,-1.278339 -0.157623,-1.896967 0.813751,-2.92467 -5.761119,4.060812 1.379186,11.018636 5.07993,13.284503 3.108403,1.903183 6.627043,2.962625 10.160305,3.727571 7.258978,1.571573 14.657551,2.282876 22.01377,0.765938 6.660939,-1.373462 14.186509,-3.739221 18.691791,-9.183523 2.048157,-2.475216 2.77631,-4.422949 1.65577,-7.51686 -0.459558,-1.463538 1.600485,-4.512723 3.514144,-5.416408 0.880567,-0.192744 2.227323,0.918087 2.9242279,1.357151 2.5551212,1.609604 5.1367066,3.616474 6.2797252,6.522276 2.047422,5.205232 -3.4163695,10.900985 -7.2034701,13.712262 -3.421355,2.539896 -7.23098,3.917063 -11.237911,5.183373 -10.912471,3.44876 -23.021712,4.1971 -34.328908,2.85426 -3.962462,-0.4706 -7.82824,-0.52907 -11.699582,-1.71967 -6.099957,-1.87607 -13.468173,-4.963016 -17.703257,-9.870363 -2.132154,-2.470774 -3.809002,-6.623017 -2.136138,-9.852092 0.95181,-1.837301 2.76932,-2.920204 4.445277,-3.99318 2.291291,-1.467054 4.648171,-2.831036 6.92742,-4.319633 z m 2.616906,4.464395 0.923746,-0.30777 V 78.78328 l -0.923746,0.308208 z M 20.964033,90.63674 c 0.241464,0.772466 -0.642509,1.427955 -1.077628,2.001376 -1.316355,1.734918 -2.886704,3.24039 -4.399207,4.797822 -2.547621,2.623452 -5.787695,4.221732 -8.9939829,5.864132 -5.4349249,2.78419 -10.9762146,5.19629 -16.7795121,7.11564 -7.83623,2.59223 -16.906954,2.80598 -25.092349,3.16465 -17.273456,0.75586 -35.780094,0.51266 -52.340354,-5.00691 -6.764968,-2.25494 -13.48124,-4.85389 -18.8461,-9.722132 -1.25693,-1.140391 -2.99916,-2.201372 -3.7832,-3.750174 2.61715,1.731216 5.02342,3.686453 7.85072,5.109506 6.11965,3.07987 12.336233,4.8799 18.934764,6.52139 8.842726,2.19997 18.173365,4.11541 27.248029,4.83172 5.376723,0.42486 10.935885,0.13261 16.317862,-0.11216 14.075203,-0.64332 27.658665,-2.12796 40.79423266,-7.64076 C 6.0222402,101.61794 11.197117,98.672419 15.729775,95.271537 17.5932,93.873453 19.053979,91.943705 20.964033,90.63674 Z m -90.518127,16.77996 -0.153882,0.15388 z m 14.008723,3.23289 -0.153883,0.15388 z m 32.174075,0.61553 -0.462073,0.15388 h 0.462073 z m -0.153884,0.46165 -0.154306,0.4621 z m -2.412166,0.0509 -0.102136,0.0526 z" />
  </g>
</svg>
